<?xml version="1.0" standalone="no"?>
<!DOCTYPE svg PUBLIC "-//W3C//DTD SVG 1.1//EN" "http://www.w3.org/Graphics/SVG/1.1/DTD/svg11.dtd" >
<svg xmlns="http://www.w3.org/2000/svg" xmlns:xlink="http://www.w3.org/1999/xlink" version="1.1">
<metadata></metadata>
<defs>
<font id="carbonblack" horiz-adv-x="1024" >
<font-face units-per-em="2048" ascent="1657" descent="-391" />
<missing-glyph horiz-adv-x="464" />
<glyph unicode="&#x28;C&#x29;" horiz-adv-x="1124" d="M61 299v868q0 88 47.5 151.5t121 103.5t162.5 58.5t173 18.5q80 0 168 -18.5t161 -58.5t121 -102.5t48 -150.5v-882q-6 -84 -52 -146.5t-117 -103.5t-159 -61.5t-178 -20.5q-98 0 -187 22.5t-158 65.5t-110 107.5t-41 148.5zM160 301q0 -61 34.5 -107.5t91 -77t128 -46 t147.5 -15.5q72 0 141.5 14.5t125 45t92 77t43.5 107.5v868q0 63 -38 107.5t-95.5 72t-125 40t-129.5 12.5q-61 0 -133.5 -10.5t-135 -37t-104.5 -72.5t-42 -118v-860zM328 440v572q0 162 239 162q238 0 238 -207v-129h-184v184q0 53 -54 53q-51 0 -51 -53v-584 q0 -55 51 -55q53 0 54 55v191h184v-189q0 -164 -238 -164q-240 0 -239 164z" />
<glyph unicode="&#x28;R&#x29;" horiz-adv-x="1124" d="M61 512v657q0 88 48.5 151.5t122 103.5t162.5 58.5t171 18.5t170 -19.5t161 -59.5t120 -102.5t47 -148.5v-671q-6 -84 -52 -146.5t-117 -103.5t-159 -61.5t-178 -20.5q-98 0 -187 22.5t-158 65.5t-110 107.5t-41 148.5zM160 514q0 -61 34.5 -107.5t91 -77t128 -46 t147.5 -15.5q72 0 141.5 14.5t125 45t92 77t43.5 107.5v657q0 63 -38 107.5t-95.5 71t-126 39t-130.5 12.5q-61 0 -133.5 -10.5t-134 -36t-103.5 -71.5t-42 -118v-649zM299 514v524q0 41 21.5 73t58.5 54.5t85 33.5t103 11q57 0 106.5 -12t86.5 -33.5t57.5 -54.5t20.5 -72 v-75q0 -129 -160 -138q160 -12 160 -125v-186h-209v186q0 74 -107 74h-14v-260h-209zM510 872q127 0 127 91v28q0 111 -66 111q-35 0 -48 -13.5t-13 -39.5v-177z" />
<glyph horiz-adv-x="0" />
<glyph unicode="&#xd;" horiz-adv-x="0" />
<glyph horiz-adv-x="464" />
<glyph unicode=" "  horiz-adv-x="464" />
<glyph unicode="&#x09;" horiz-adv-x="464" />
<glyph unicode="&#xa0;" horiz-adv-x="464" />
<glyph unicode="!" horiz-adv-x="579" d="M125 0v236h330v-236h-330zM125 399v1059h330v-1059h-330z" />
<glyph unicode="&#x22;" horiz-adv-x="835" d="M61 1458h304l-41 -414h-222zM471 1458h303l-41 -414h-221z" />
<glyph unicode="#" horiz-adv-x="1132" d="M61 494v165h187l31 246h-197v164h217l51 389h185l-52 -389h205l51 389h185l-52 -389h199v-164h-219l-31 -246h230v-165h-250l-62 -494h-184l61 494h-204l-62 -494h-184l61 494h-166zM432 659h205l31 246h-205z" />
<glyph unicode="$" horiz-adv-x="876" d="M61 379v180h281v-203q0 -70 88 -69q45 0 67.5 18.5t22.5 65.5v96q0 29 -15.5 62.5t-51.5 60.5l-254 178q-68 47 -96.5 91t-28.5 116v106q0 115 73.5 164t221.5 60v153h143v-153q68 -4 123 -18.5t95 -41t62.5 -68.5t22.5 -100v-143h-280v166q0 70 -91 69q-88 0 -88 -75 v-76q0 -47 11.5 -69.5t52.5 -51.5l270 -184q59 -41 88 -93.5t29 -125.5v-136q0 -104 -76 -151t-219 -57v-150h-143v150q-70 4 -126.5 17t-96.5 41t-62.5 69.5t-22.5 101.5z" />
<glyph unicode="%" horiz-adv-x="1267" d="M61 0zM61 877v469q0 86 64.5 118.5t161.5 32.5q47 0 88 -7t71.5 -25.5t48 -48.5t17.5 -73v-464q0 -43 -17.5 -73t-48 -48.5t-71.5 -25.5t-88 -7q-96 0 -161 33t-65 119zM121 -20l895 1499h131l-897 -1499h-129zM236 862q0 -45 51 -45t51 45v498q0 45 -51 45t-51 -45v-498 zM755 109v469q0 86 64.5 118.5t161.5 32.5q47 0 88 -7t71.5 -25.5t48 -48.5t17.5 -73v-464q0 -43 -17.5 -73t-48 -48.5t-71.5 -25.5t-88 -7q-96 0 -161 33t-65 119zM930 94q0 -45 51 -45t51 45v498q0 45 -51 45t-51 -45v-498z" />
<glyph unicode="&#x26;" horiz-adv-x="1017" d="M61 307v240q0 86 62.5 135t195.5 61q-133 10 -190 66.5t-57 161.5v223q0 88 33.5 146.5t92 94t138.5 51t174 15.5t171 -15.5t132 -51t85 -94t30 -146.5v-152h-326v183q0 92 -102 92t-103 -92v-273q0 -131 103 -131h485v-166h-57v-655h-418q-94 0 -176 15.5t-142.5 51 t-95.5 94t-35 146.5zM397 276q0 -92 103 -92h102v471h-102q-49 0 -76 -37.5t-27 -99.5v-242z" />
<glyph unicode="'" horiz-adv-x="425" d="M61 1458h304l-41 -414h-222z" />
<glyph unicode="(" horiz-adv-x="673" d="M139 674q0 258 72 500.5t213 441.5h213q-135 -199 -202.5 -440.5t-67.5 -501.5t67.5 -502t202.5 -440h-213q-141 199 -213 439.5t-72 502.5z" />
<glyph unicode=")" horiz-adv-x="675" d="M39 -268q135 199 202.5 440.5t67.5 501.5t-67.5 501.5t-202.5 440.5h213q141 -199 213 -441.5t72 -500.5q0 -262 -72 -503t-213 -439h-213z" />
<glyph unicode="*" horiz-adv-x="856" d="M61 1153l62 164l239 -111l-38 252h206l-32 -254l243 111l54 -166l-269 -53l185 -187l-166 -114l-115 221l-131 -219l-158 116l187 179z" />
<glyph unicode="+" horiz-adv-x="1085" d="M61 678v166h400v399h164v-399h399v-166h-399v-399h-164v399h-400z" />
<glyph unicode="," horiz-adv-x="473" d="M61 -178l23 414h328l-154 -414h-197z" />
<glyph unicode="-" horiz-adv-x="475" d="M31 655v156h411v-156h-411z" />
<glyph unicode="." horiz-adv-x="452" d="M61 0v236h330v-236h-330z" />
<glyph unicode="/" horiz-adv-x="575" d="M20 -117l398 1618h141l-401 -1618h-138z" />
<glyph unicode="0" d="M61 260v936q0 86 35 145.5t95.5 94t143.5 50t179 15.5q94 0 176 -15.5t142.5 -51t95.5 -94t35 -146.5v-932q0 -88 -35 -146.5t-95.5 -94t-142.5 -51t-176 -15.5q-96 0 -179 15.5t-143.5 50t-95.5 94t-35 145.5zM412 231q0 -92 102 -92t102 92v994q0 92 -102 92t-102 -92 v-994z" />
<glyph unicode="1" horiz-adv-x="632" d="M29 1296v162h280q262 0 262 -319v-1139h-352v1169q0 127 -115 127h-75z" />
<glyph unicode="2" horiz-adv-x="1036" d="M70 0v358q0 100 34.5 180t112.5 140l322 252q45 35 61 65.5t16 71.5v158q0 92 -102 92t-102 -92v-226h-322v195q0 88 31 146.5t87 94t134 51t172 15.5q96 0 179 -15.5t143.5 -50t95.5 -94t35 -145.5v-141q0 -90 -34 -151.5t-110 -121.5l-311 -245q-33 -27 -55.5 -49.5 t-35.5 -48t-19.5 -54.5t-6.5 -68v-106h549v-211h-874z" />
<glyph unicode="3" horiz-adv-x="1009" d="M61 262v268h347v-299q0 -92 102 -92t102 92v287q0 61 -26.5 99t-75.5 38h-84v166h84q102 0 102 131v273q0 92 -102 92t-102 -92v-297h-336v266q0 88 31.5 146.5t88 94t135.5 51t173 15.5t174 -15.5t138 -51t92 -94t34 -146.5v-223q0 -104 -57.5 -160.5t-190.5 -67.5 q133 -12 195.5 -61t62.5 -135v-285q0 -88 -34.5 -146.5t-95 -94t-142.5 -51t-176 -15.5t-174 15.5t-138.5 51t-92.5 94t-34 146.5z" />
<glyph unicode="4" horiz-adv-x="1034" d="M41 362v162l440 934h477v-1458h-350v362h-567zM342 541h283v729z" />
<glyph unicode="5" horiz-adv-x="1015" d="M70 262v264h321v-295q0 -92 103 -92q102 0 102 92v381q0 119 -135 119h-391v727h866v-172h-545v-368h207q172 0 260 -56.5t88 -173.5v-428q0 -86 -34.5 -145.5t-95 -94t-143.5 -50t-179 -15.5q-94 0 -172 15.5t-134.5 51t-87 94t-30.5 146.5z" />
<glyph unicode="6" horiz-adv-x="1011" d="M61 262v934q0 86 35 145.5t95.5 94t143.5 50t179 15.5q94 0 172 -15.5t134.5 -51t87 -94t30.5 -146.5v-154h-322v185q0 92 -102 92t-102 -92v-365q74 12 135 12q98 0 174 -25.5t127 -70.5t77.5 -107.5t26.5 -136.5v-268q0 -88 -33.5 -146.5t-92 -94t-138.5 -51 t-174 -15.5q-96 0 -179 15.5t-143.5 50t-95.5 94t-35 145.5zM412 233q0 -92 102 -92t102 92v320q0 66 -38.5 97.5t-92.5 31.5h-73v-449z" />
<glyph unicode="7" horiz-adv-x="960" d="M35 1282v176h893v-182l-436 -1276h-375l463 1282h-545z" />
<glyph unicode="8" horiz-adv-x="1009" d="M61 262v318q0 86 62.5 135t195.5 61q-133 10 -190 66.5t-57 161.5v190q0 88 31.5 146.5t88 94t135.5 51t173 15.5t174 -15.5t138 -51t92 -94t34 -146.5v-190q0 -104 -57.5 -161t-190.5 -67q133 -12 195.5 -61t62.5 -135v-318q0 -88 -34.5 -146.5t-95 -94t-142.5 -51 t-176 -15.5t-174 15.5t-138.5 51t-92.5 94t-34 146.5zM408 231q0 -92 102 -92t102 92v320q0 121 -102 137q-102 -16 -102 -137v-320zM408 985q0 -66 26.5 -95.5t75.5 -35.5q49 6 75.5 36t26.5 95v240q0 92 -102 92t-102 -92v-240z" />
<glyph unicode="9" horiz-adv-x="1013" d="M61 891v303q0 88 34 146.5t92.5 94t138.5 51t174 15.5q96 0 179 -15.5t143.5 -50t95 -94t34.5 -145.5v-934q0 -86 -34.5 -145.5t-95 -94t-143.5 -50t-179 -15.5q-94 0 -172 15.5t-134.5 51t-87 94t-30.5 146.5v119h321v-150q0 -92 103 -92q102 0 102 92v330 q-74 -12 -135 -12q-98 0 -174 25.5t-127 70.5t-78 107.5t-27 136.5zM397 870q0 -66 39 -97.5t92 -31.5h74v484q0 92 -102 92t-103 -92v-355z" />
<glyph unicode=":" horiz-adv-x="495" d="M82 0v236h330v-236h-330zM82 676v235h330v-235h-330z" />
<glyph unicode=";" horiz-adv-x="501" d="M61 -178l23 414h328l-154 -414h-197zM84 676v235h330v-235h-330z" />
<glyph unicode="&#x3c;" horiz-adv-x="1138" d="M61 674v137l1012 434v-178l-790 -322l790 -325v-174z" />
<glyph unicode="=" horiz-adv-x="1132" d="M61 494v165h1010v-165h-1010zM61 905v164h1010v-164h-1010z" />
<glyph unicode="&#x3e;" horiz-adv-x="1138" d="M61 246v174l791 325l-791 322v178l1012 -434v-137z" />
<glyph unicode="?" horiz-adv-x="907" d="M55 1001v193q0 88 29 146.5t83 94t130 51t172 15.5q88 0 159.5 -15.5t123 -50t78 -94t26.5 -145.5v-164q0 -45 -4 -76.5t-11 -57.5t-19.5 -46.5t-30.5 -40.5l-154 -178q-27 -31 -40 -76t-13 -82v-76h-314v133q0 55 14.5 101.5t51.5 89.5l151 172q29 35 41.5 63.5 t12.5 71.5v195q0 92 -97 92q-94 0 -94 -92v-224h-295zM270 0v236h314v-236h-314z" />
<glyph unicode="@" horiz-adv-x="1261" d="M61 223v1012q0 109 100.5 166t276.5 57h381q373 0 373 -244v-612q0 -109 -93 -166t-280 -57q-190 0 -283.5 57.5t-93.5 165.5v227q0 109 93.5 166.5t283.5 57.5h172v155q0 59 -41 82t-129 23h-385q-88 0 -131 -22.5t-43 -82.5v-981q0 -82 174 -82h764v-145h-762 q-190 0 -283.5 57.5t-93.5 165.5zM643 606q0 -82 174 -82t174 82v301h-174q-174 0 -174 -82v-219z" />
<glyph unicode="A" horiz-adv-x="1040" d="M70 0v1217q0 66 34.5 119t95 89.5t143.5 56t179 19.5q94 0 176 -19.5t142.5 -56t95.5 -90t35 -118.5v-1217h-346v578h-205v-578h-350zM420 768h205v457q0 92 -103 92q-102 0 -102 -92v-457z" />
<glyph unicode="B" horiz-adv-x="1013" d="M61 260v936q0 86 35 145.5t95.5 94t143.5 50t179 15.5q94 0 172 -15.5t135.5 -51t89 -94t31.5 -146.5v-190q0 -104 -57.5 -161t-190.5 -67q133 -12 195.5 -61t62.5 -135v-318q0 -88 -33.5 -146.5t-92 -94t-138.5 -51t-174 -15.5q-96 0 -179 15.5t-143.5 50t-95.5 94 t-35 145.5zM412 231q0 -92 102 -92t102 92v320q0 139 -129 139h-75v-459zM412 854h75q61 0 95 29.5t34 101.5v240q0 92 -102 92t-102 -92v-371z" />
<glyph unicode="C" horiz-adv-x="987" d="M61 260v936q0 86 35 145.5t95.5 94t143.5 50t179 15.5q94 0 172 -15.5t134.5 -51t87 -94t30.5 -146.5v-274h-322v305q0 92 -102 92t-102 -92v-994q0 -92 102 -92t102 92v336h322v-305q0 -88 -30.5 -146.5t-87 -94t-134.5 -51t-172 -15.5q-96 0 -179 15.5t-143.5 50 t-95.5 94t-35 145.5z" />
<glyph unicode="D" horiz-adv-x="1038" d="M76 0v1458h440q461 0 461 -344v-772q0 -342 -465 -342h-436zM424 178h47q158 0 158 94v922q0 96 -158 96h-47v-1112z" />
<glyph unicode="E" horiz-adv-x="894" d="M76 0v1458h768v-198h-420v-367h407v-193h-407v-499h422v-201h-770z" />
<glyph unicode="F" horiz-adv-x="858" d="M76 0v1458h751v-198h-403v-383h391v-193h-391v-684h-348z" />
<glyph unicode="G" horiz-adv-x="1017" d="M61 260v936q0 86 35 145.5t95.5 94t143.5 50t179 15.5q94 0 172 -15.5t134.5 -51t87 -94t30.5 -146.5v-242h-322v273q0 92 -102 92t-102 -92v-994q0 -92 112 -92q109 0 109 101v317h-127v182h455v-739h-183l-30 90q-47 -68 -120 -101.5t-200 -33.5q-63 0 -129 15.5 t-118 50t-86 94t-34 145.5z" />
<glyph unicode="H" horiz-adv-x="1042" d="M76 0v1458h348v-557h197v557h346v-1458h-346v700h-197v-700h-348z" />
<glyph unicode="I" horiz-adv-x="516" d="M84 0v1458h348v-1458h-348z" />
<glyph unicode="J" horiz-adv-x="993" d="M47 262v305h322v-336q0 -92 102 -92t102 92v1227h351v-1198q0 -86 -35 -145.5t-95.5 -94t-143.5 -50t-179 -15.5q-94 0 -172 15.5t-134 51t-87 94t-31 146.5z" />
<glyph unicode="K" horiz-adv-x="1028" d="M61 0v1458h349v-645l252 645h325l-254 -631l295 -827h-377l-241 735v-735h-349z" />
<glyph unicode="L" horiz-adv-x="854" d="M76 0v1458h348v-1257h422v-201h-770z" />
<glyph unicode="M" horiz-adv-x="1593" d="M70 0v1208q0 76 35.5 131.5t97 91t141.5 53t168 17.5q176 0 285 -82q119 82 290 82q88 0 167 -17.5t138.5 -53t95.5 -91t36 -131.5v-1208h-348v1217q0 92 -105 92q-100 0 -100 -101v-1208h-350v1229q0 35 -32 57.5t-67 22.5q-102 0 -102 -92v-1217h-350z" />
<glyph unicode="N" horiz-adv-x="1040" d="M70 0v1196q0 86 34.5 145.5t95 94t143.5 50t179 15.5q94 0 176 -15.5t142.5 -51t95.5 -94t35 -146.5v-1194h-346v1225q0 92 -103 92q-102 0 -102 -92v-1225h-350z" />
<glyph unicode="O" d="M61 260v936q0 86 35 145.5t95.5 94t143.5 50t179 15.5q94 0 176 -15.5t142.5 -51t95.5 -94t35 -146.5v-932q0 -88 -35 -146.5t-95.5 -94t-142.5 -51t-176 -15.5q-96 0 -179 15.5t-143.5 50t-95.5 94t-35 145.5zM412 231q0 -92 102 -92t102 92v994q0 92 -102 92t-102 -92 v-994z" />
<glyph unicode="P" horiz-adv-x="987" d="M70 0v1196q0 86 34.5 145.5t95 94t143.5 50t179 15.5q94 0 174 -15.5t138.5 -51t92.5 -94t34 -146.5v-365q0 -74 -27 -136t-78 -107t-127 -71t-174 -26q-61 0 -135 13v-502h-350zM420 680h74q53 0 92 31.5t39 97.5v416q0 92 -103 92q-102 0 -102 -92v-545z" />
<glyph unicode="Q" d="M61 264v932q0 86 35 145.5t95.5 94t143.5 50t179 15.5q94 0 176 -15.5t142.5 -51t95.5 -94t35 -146.5v-928q0 -106 -48.5 -169.5t-134.5 -96.5h183v-160q-47 -18 -123 -18q-119 0 -174.5 31.5t-65.5 109.5q-20 -2 -41.5 -3t-44.5 -1q-96 0 -179 15.5t-143.5 50t-95.5 94 t-35 145.5zM412 236q0 -92 102 -93q102 0 102 93v989q0 92 -102 92t-102 -92v-989z" />
<glyph unicode="R" horiz-adv-x="1030" d="M70 0v1196q0 86 34.5 145.5t95 94t143.5 50t179 15.5q94 0 172 -15.5t135.5 -51t89 -94t31.5 -146.5v-238q0 -104 -57 -160.5t-191 -66.5q133 -12 196 -61.5t63 -135.5v-532h-336v504q0 139 -129 139h-76v-643h-350zM420 807h76q61 0 95 29.5t34 101.5v287q0 92 -103 92 q-102 0 -102 -92v-418z" />
<glyph unicode="S" horiz-adv-x="987" d="M61 262v240h322v-271q0 -92 102 -92q51 0 77 25.5t26 87.5v127q0 41 -17.5 86t-60.5 80l-291 237q-78 61 -110.5 122t-32.5 153v143q0 170 106.5 235.5t319.5 65.5q94 0 172 -15.5t134 -51t87 -94t31 -146.5v-190h-322v221q0 92 -102 92t-103 -100v-101q0 -31 3.5 -53.5 t11.5 -40.5t22.5 -33.5t36.5 -34.5l309 -247q68 -53 102 -123t34 -168v-180q0 -156 -111 -218.5t-322 -62.5q-94 0 -171.5 15.5t-134 51t-87.5 94t-31 146.5z" />
<glyph unicode="T" horiz-adv-x="923" d="M10 1272v186h908v-186h-279v-1272h-348v1272h-281z" />
<glyph unicode="U" horiz-adv-x="1017" d="M70 264v1194h346v-1225q0 -47 21.5 -69.5t72.5 -22.5q96 0 96 92v1225h342v-1196q0 -86 -32.5 -145.5t-91 -94t-138.5 -50t-176 -15.5q-94 0 -174 15.5t-139.5 51t-93 94t-33.5 146.5z" />
<glyph unicode="V" horiz-adv-x="1028" d="M10 1458h348l162 -1188l168 1188h334l-264 -1458h-496z" />
<glyph unicode="W" horiz-adv-x="1552" d="M70 250v1208h348v-1216q0 -47 21.5 -69.5t74.5 -22.5q51 0 71.5 24.5t20.5 75.5v1208h342v-1229q0 -35 28 -57t62 -22q51 0 73 22.5t22 69.5v1216h350v-1208q0 -76 -35 -131.5t-94.5 -91t-138 -53t-166.5 -17.5t-153 20.5t-120 61.5q-59 -41 -125.5 -61.5t-152.5 -20.5 q-88 0 -166 17.5t-136.5 53t-92 91t-33.5 131.5z" />
<glyph unicode="X" horiz-adv-x="1009" d="M61 0v580q0 86 62.5 135t195.5 61q-133 10 -190 66.5t-57 161.5v454h336v-473q0 -66 26.5 -95.5t75.5 -35.5q49 6 75.5 36t26.5 95v473h326v-454q0 -104 -57.5 -161t-190.5 -67q133 -12 195.5 -61t62.5 -135v-580h-336v551q0 121 -102 137q-102 -16 -102 -137v-551h-347z " />
<glyph unicode="Y" d="M4 1458h354l174 -627l173 627h315l-338 -911v-547h-356v547z" />
<glyph unicode="Z" horiz-adv-x="880" d="M55 0v170l410 1092h-399v196h772v-172l-406 -1087h406v-199h-783z" />
<glyph unicode="[" horiz-adv-x="681" d="M139 -313v1996h482v-159h-277v-1674h277v-163h-482z" />
<glyph unicode="\" horiz-adv-x="563" d="M10 1501h142l397 -1618h-137z" />
<glyph unicode="]" horiz-adv-x="679" d="M61 -154h275v1676h-275v161h482v-1996h-482v159z" />
<glyph unicode="^" horiz-adv-x="1042" d="M61 616l398 842h116l406 -842h-225l-238 543l-248 -543h-209z" />
<glyph unicode="_" horiz-adv-x="860" d="M0 -109h864v-145h-864v145z" />
<glyph unicode="`" horiz-adv-x="583" d="M-6 1694l67 172l404 -197l-47 -123z" />
<glyph unicode="a" horiz-adv-x="1040" d="M70 0v1217q0 66 34.5 119t95 89.5t143.5 56t179 19.5q94 0 176 -19.5t142.5 -56t95.5 -90t35 -118.5v-1217h-346v578h-205v-578h-350zM70 0zM420 768h205v457q0 92 -103 92q-102 0 -102 -92v-457z" />
<glyph unicode="b" horiz-adv-x="1013" d="M61 0zM61 260v936q0 86 35 145.5t95.5 94t143.5 50t179 15.5q94 0 172 -15.5t135.5 -51t89 -94t31.5 -146.5v-190q0 -104 -57.5 -161t-190.5 -67q133 -12 195.5 -61t62.5 -135v-318q0 -88 -33.5 -146.5t-92 -94t-138.5 -51t-174 -15.5q-96 0 -179 15.5t-143.5 50 t-95.5 94t-35 145.5zM412 231q0 -92 102 -92t102 92v320q0 139 -129 139h-75v-459zM412 854h75q61 0 95 29.5t34 101.5v240q0 92 -102 92t-102 -92v-371z" />
<glyph unicode="c" horiz-adv-x="987" d="M61 0zM61 260v936q0 86 35 145.5t95.5 94t143.5 50t179 15.5q94 0 172 -15.5t134.5 -51t87 -94t30.5 -146.5v-274h-322v305q0 92 -102 92t-102 -92v-994q0 -92 102 -92t102 92v336h322v-305q0 -88 -30.5 -146.5t-87 -94t-134.5 -51t-172 -15.5q-96 0 -179 15.5t-143.5 50 t-95.5 94t-35 145.5z" />
<glyph unicode="d" horiz-adv-x="1038" d="M76 0v1458h440q461 0 461 -344v-772q0 -342 -465 -342h-436zM76 0zM424 178h47q158 0 158 94v922q0 96 -158 96h-47v-1112z" />
<glyph unicode="e" horiz-adv-x="894" d="M76 0v1458h768v-198h-420v-367h407v-193h-407v-499h422v-201h-770zM76 0z" />
<glyph unicode="f" horiz-adv-x="858" d="M76 0v1458h751v-198h-403v-383h391v-193h-391v-684h-348zM76 0z" />
<glyph unicode="g" horiz-adv-x="1017" d="M61 0zM61 260v936q0 86 35 145.5t95.5 94t143.5 50t179 15.5q94 0 172 -15.5t134.5 -51t87 -94t30.5 -146.5v-242h-322v273q0 92 -102 92t-102 -92v-994q0 -92 112 -92q109 0 109 101v317h-127v182h455v-739h-183l-30 90q-47 -68 -120 -101.5t-200 -33.5q-63 0 -129 15.5 t-118 50t-86 94t-34 145.5z" />
<glyph unicode="h" horiz-adv-x="1042" d="M76 0v1458h348v-557h197v557h346v-1458h-346v700h-197v-700h-348zM76 0z" />
<glyph unicode="i" horiz-adv-x="516" d="M84 0v1458h348v-1458h-348zM84 0z" />
<glyph unicode="j" horiz-adv-x="993" d="M47 0zM47 262v305h322v-336q0 -92 102 -92t102 92v1227h351v-1198q0 -86 -35 -145.5t-95.5 -94t-143.5 -50t-179 -15.5q-94 0 -172 15.5t-134 51t-87 94t-31 146.5z" />
<glyph unicode="k" horiz-adv-x="1028" d="M61 0v1458h349v-645l252 645h325l-254 -631l295 -827h-377l-241 735v-735h-349zM61 0z" />
<glyph unicode="l" horiz-adv-x="854" d="M76 0v1458h348v-1257h422v-201h-770zM76 0z" />
<glyph unicode="m" horiz-adv-x="1593" d="M70 0v1208q0 76 35.5 131.5t97 91t141.5 53t168 17.5q176 0 285 -82q119 82 290 82q88 0 167 -17.5t138.5 -53t95.5 -91t36 -131.5v-1208h-348v1217q0 92 -105 92q-100 0 -100 -101v-1208h-350v1229q0 35 -32 57.5t-67 22.5q-102 0 -102 -92v-1217h-350zM70 0z" />
<glyph unicode="n" horiz-adv-x="1040" d="M70 0v1196q0 86 34.5 145.5t95 94t143.5 50t179 15.5q94 0 176 -15.5t142.5 -51t95.5 -94t35 -146.5v-1194h-346v1225q0 92 -103 92q-102 0 -102 -92v-1225h-350zM70 0z" />
<glyph unicode="o" d="M61 0zM61 260v936q0 86 35 145.5t95.5 94t143.5 50t179 15.5q94 0 176 -15.5t142.5 -51t95.5 -94t35 -146.5v-932q0 -88 -35 -146.5t-95.5 -94t-142.5 -51t-176 -15.5q-96 0 -179 15.5t-143.5 50t-95.5 94t-35 145.5zM412 231q0 -92 102 -92t102 92v994q0 92 -102 92 t-102 -92v-994z" />
<glyph unicode="p" horiz-adv-x="987" d="M70 0v1196q0 86 34.5 145.5t95 94t143.5 50t179 15.5q94 0 174 -15.5t138.5 -51t92.5 -94t34 -146.5v-365q0 -74 -27 -136t-78 -107t-127 -71t-174 -26q-61 0 -135 13v-502h-350zM70 0zM420 680h74q53 0 92 31.5t39 97.5v416q0 92 -103 92q-102 0 -102 -92v-545z" />
<glyph unicode="q" d="M61 0zM61 264v932q0 86 35 145.5t95.5 94t143.5 50t179 15.5q94 0 176 -15.5t142.5 -51t95.5 -94t35 -146.5v-928q0 -106 -48.5 -169.5t-134.5 -96.5h183v-160q-47 -18 -123 -18q-119 0 -174.5 31.5t-65.5 109.5q-20 -2 -41.5 -3t-44.5 -1q-96 0 -179 15.5t-143.5 50 t-95.5 94t-35 145.5zM412 236q0 -92 102 -93q102 0 102 93v989q0 92 -102 92t-102 -92v-989z" />
<glyph unicode="r" horiz-adv-x="1030" d="M70 0v1196q0 86 34.5 145.5t95 94t143.5 50t179 15.5q94 0 172 -15.5t135.5 -51t89 -94t31.5 -146.5v-238q0 -104 -57 -160.5t-191 -66.5q133 -12 196 -61.5t63 -135.5v-532h-336v504q0 139 -129 139h-76v-643h-350zM70 0zM420 807h76q61 0 95 29.5t34 101.5v287 q0 92 -103 92q-102 0 -102 -92v-418z" />
<glyph unicode="s" horiz-adv-x="987" d="M61 0zM61 262v240h322v-271q0 -92 102 -92q51 0 77 25.5t26 87.5v127q0 41 -17.5 86t-60.5 80l-291 237q-78 61 -110.5 122t-32.5 153v143q0 170 106.5 235.5t319.5 65.5q94 0 172 -15.5t134 -51t87 -94t31 -146.5v-190h-322v221q0 92 -102 92t-103 -100v-101 q0 -31 3.5 -53.5t11.5 -40.5t22.5 -33.5t36.5 -34.5l309 -247q68 -53 102 -123t34 -168v-180q0 -156 -111 -218.5t-322 -62.5q-94 0 -171.5 15.5t-134 51t-87.5 94t-31 146.5z" />
<glyph unicode="t" horiz-adv-x="923" d="M10 0zM10 1272v186h908v-186h-279v-1272h-348v1272h-281z" />
<glyph unicode="u" horiz-adv-x="1017" d="M70 0zM70 264v1194h346v-1225q0 -47 21.5 -69.5t72.5 -22.5q96 0 96 92v1225h342v-1196q0 -86 -32.5 -145.5t-91 -94t-138.5 -50t-176 -15.5q-94 0 -174 15.5t-139.5 51t-93 94t-33.5 146.5z" />
<glyph unicode="v" horiz-adv-x="1028" d="M10 0zM10 1458h348l162 -1188l168 1188h334l-264 -1458h-496z" />
<glyph unicode="w" horiz-adv-x="1552" d="M70 0zM70 250v1208h348v-1216q0 -47 21.5 -69.5t74.5 -22.5q51 0 71.5 24.5t20.5 75.5v1208h342v-1229q0 -35 28 -57t62 -22q51 0 73 22.5t22 69.5v1216h350v-1208q0 -76 -35 -131.5t-94.5 -91t-138 -53t-166.5 -17.5t-153 20.5t-120 61.5q-59 -41 -125.5 -61.5 t-152.5 -20.5q-88 0 -166 17.5t-136.5 53t-92 91t-33.5 131.5z" />
<glyph unicode="x" horiz-adv-x="1009" d="M61 0v580q0 86 62.5 135t195.5 61q-133 10 -190 66.5t-57 161.5v454h336v-473q0 -66 26.5 -95.5t75.5 -35.5q49 6 75.5 36t26.5 95v473h326v-454q0 -104 -57.5 -161t-190.5 -67q133 -12 195.5 -61t62.5 -135v-580h-336v551q0 121 -102 137q-102 -16 -102 -137v-551h-347z M61 0z" />
<glyph unicode="y" d="M4 0zM4 1458h354l174 -627l173 627h315l-338 -911v-547h-356v547z" />
<glyph unicode="z" horiz-adv-x="880" d="M55 0v170l410 1092h-399v196h772v-172l-406 -1087h406v-199h-783zM55 0z" />
<glyph unicode="{" horiz-adv-x="735" d="M61 610v189h76q74 0 100.5 64.5t26.5 183.5v352q0 82 25.5 137t66.5 88t92.5 46t102.5 13h123v-159h-96q-35 0 -58.5 -7.5t-37 -36t-19.5 -85t-6 -156.5v-278q0 -98 -52.5 -158t-150.5 -96q104 -49 153.5 -112t49.5 -149v-309q0 -102 6 -160.5t19.5 -86t37 -34t58.5 -6.5 h96v-163h-115q-53 0 -105.5 14t-94.5 51t-68.5 98.5t-26.5 157.5v348q0 139 -29.5 196.5t-97.5 57.5h-76z" />
<glyph unicode="|" horiz-adv-x="608" d="M209 -295v1952h188v-1952h-188z" />
<glyph unicode="}" horiz-adv-x="735" d="M61 -150h97q35 0 58.5 6.5t36.5 34t18 86t5 160.5v309q0 86 50.5 147.5t154.5 108.5q-98 39 -151.5 99.5t-53.5 159.5v278q0 100 -5 156.5t-18 85t-36.5 36t-58.5 7.5h-97v159h125q51 0 101.5 -13t91.5 -46t66.5 -88t25.5 -137v-352q0 -119 26.5 -183.5t98.5 -64.5h78 v-189h-78q-63 0 -94 -57t-31 -197v-348q0 -96 -26.5 -157.5t-67.5 -98.5t-92.5 -51t-102.5 -14h-121v163z" />
<glyph unicode="~" horiz-adv-x="1150" d="M61 428v244q41 53 106.5 94t158.5 41q76 0 139 -18.5t120.5 -42t111 -42t108.5 -18.5q47 0 116.5 45t168.5 156v-240q-63 -72 -132 -102.5t-165 -30.5q-61 0 -121 19.5t-116 42t-111.5 42t-110.5 19.5q-43 0 -111.5 -49t-161.5 -160z" />
<glyph unicode="&#xa1;" horiz-adv-x="579" d="M125 0zM125 0v1059h330v-1059h-330zM125 1222v236h330v-236h-330z" />
<glyph unicode="&#xa2;" horiz-adv-x="888" d="M61 377v702q0 57 24 97.5t67 67t101 40.5t128 19v155h143v-153q68 -4 123 -18.5t95 -41t62.5 -68.5t22.5 -100v-207h-280v230q0 70 -90 69q-88 0 -88 -69v-744q0 -70 88 -69q90 0 90 69v252h280v-229q0 -119 -84 -170t-219 -59v-150h-143v150q-70 4 -128 18t-101 42 t-67 68.5t-24 98.5z" />
<glyph unicode="&#xa3;" horiz-adv-x="1067" d="M43 0v201h94v401h-76v143h76v451q0 86 35 145.5t95.5 94t143.5 50t179 15.5q94 0 172 -15.5t134 -51t87 -94t31 -146.5v-274h-322v305q0 92 -102 92t-103 -92v-480h248v-143h-248v-401h523v-201h-967z" />
<glyph unicode="&#xa5;" horiz-adv-x="1089" d="M35 1458h354l174 -627l172 627h316l-283 -760h246v-166h-301v-176h301v-166h-301v-190h-357v190h-288v166h288v176h-288v166h235z" />
<glyph unicode="&#xa6;" horiz-adv-x="608" d="M209 -295v909h188v-909h-188zM209 850v807h188v-807h-188z" />
<glyph unicode="&#xa8;" horiz-adv-x="665" d="M31 1587v242h217v-242h-217zM418 1587v242h217v-242h-217z" />
<glyph unicode="&#xaa;" horiz-adv-x="694" d="M100 614v670q0 72 71 114t177 42q51 0 96 -11.5t79 -31t53.5 -48t19.5 -65.5v-670h-190v318h-113v-318h-193zM293 1036h113v252q0 51 -58 51q-55 0 -55 -51v-252z" />
<glyph unicode="&#xab;" horiz-adv-x="821" d="M31 696v66l389 303v-154l-242 -180l242 -180v-150zM399 696v66l389 303v-154l-241 -180l241 -180v-150z" />
<glyph unicode="&#xad;" horiz-adv-x="475" d="M31 655v156h411v-156h-411z" />
<glyph unicode="&#xaf;" horiz-adv-x="684" d="M45 1626v170h592v-170h-592z" />
<glyph unicode="&#xb0;" horiz-adv-x="645" d="M61 1292q0 55 14.5 101.5t46.5 81t81 54t121 19.5q70 0 119 -19.5t80.5 -54t46 -81t14.5 -101.5q0 -106 -61.5 -181t-198.5 -75q-72 0 -121 20.5t-81 55.5t-46.5 81t-14.5 99zM162 1294q0 -70 36 -120t126 -50q86 0 122.5 50.5t36.5 119.5q0 72 -36.5 120t-122.5 48 q-90 0 -126 -48t-36 -120z" />
<glyph unicode="&#xb1;" horiz-adv-x="1085" d="M61 2v166h963v-166h-963zM61 2zM61 678v166h400v399h164v-399h399v-166h-399v-399h-164v399h-400z" />
<glyph unicode="&#xb2;" horiz-adv-x="579" d="M66 748v178q0 100 73 159l160 127q23 16 31 30.5t8 37.5v80q0 45 -51 45t-51 -45v-113h-160v96q0 88 58.5 121t152.5 33q98 0 162.5 -32.5t64.5 -118.5v-72q0 -45 -17.5 -76t-54.5 -59l-155 -123q-35 -27 -47.5 -49.5t-12.5 -61.5v-53h275v-104h-436zM66 748z" />
<glyph unicode="&#xb3;" horiz-adv-x="565" d="M61 725zM61 879v133h172v-150q0 -45 52 -45q51 0 51 45v144q0 31 -13.5 50t-37.5 19h-41v82h41q51 0 51 66v137q0 45 -51 45t-52 -45v-150h-167v133q0 88 60 121t155 33q94 0 156.5 -32.5t62.5 -121.5v-110q0 -53 -30 -82t-95 -33q129 -12 129 -98v-141q0 -43 -17.5 -73 t-47 -48.5t-70.5 -25.5t-88 -7q-94 0 -157 33t-63 121z" />
<glyph unicode="&#xb4;" horiz-adv-x="583" d="M117 1669l403 197l68 -172l-424 -148z" />
<glyph unicode="&#xb6;" horiz-adv-x="946" d="M35 1227q0 47 19.5 89t59.5 73.5t102.5 50t150.5 18.5h518v-1636h-197v1397h-221v-1397h-201v1184q-66 8 -109.5 29.5t-71.5 51t-39 66.5t-11 74z" />
<glyph unicode="&#xb7;" horiz-adv-x="452" d="M61 614v236h330v-236h-330z" />
<glyph unicode="&#xb8;" horiz-adv-x="454" d="M61 -391l21 305h311l-145 -305h-187z" />
<glyph unicode="&#xb9;" horiz-adv-x="376" d="M45 748zM45 1395v82h139q131 0 131 -160v-569h-176v583q0 63 -57 64h-37z" />
<glyph unicode="&#xba;" horiz-adv-x="686" d="M94 758v514q0 94 72 131t178 37q51 0 96 -8.5t78 -28t52.5 -52t19.5 -79.5v-514q0 -47 -19.5 -80t-52.5 -52.5t-78 -27.5t-96 -8q-53 0 -98 8t-79 27.5t-53.5 52.5t-19.5 80zM289 741q0 -51 55 -51q57 0 57 51v547q0 51 -57 51q-55 0 -55 -51v-547z" />
<glyph unicode="&#xbb;" horiz-adv-x="821" d="M31 401v150l241 180l-241 180v154l389 -303v-66zM399 401v150l242 180l-242 180v154l389 -303v-66z" />
<glyph unicode="&#xbc;" horiz-adv-x="1226" d="M61 0zM62 -20l895 1499h131l-897 -1499h-129zM100 1395v82h139q131 0 131 -160v-569h-176v583q0 63 -57 64h-37zM706 160v82l219 467h240v-729h-176v180h-283zM856 250h141v364z" />
<glyph unicode="&#xbd;" horiz-adv-x="1251" d="M61 0zM62 -20l895 1499h131l-897 -1499h-129zM100 1395v82h139q131 0 131 -160v-569h-176v583q0 63 -57 64h-37zM742 -20v178q0 100 73 159l160 127q23 16 31 30.5t8 37.5v80q0 45 -51 45t-51 -45v-113h-160v96q0 88 58.5 121t152.5 33q98 0 162.5 -32.5t64.5 -118.5v-72 q0 -45 -17.5 -76t-54.5 -59l-155 -123q-35 -27 -47.5 -49.5t-12.5 -61.5v-53h275v-104h-436z" />
<glyph unicode="&#xbe;" horiz-adv-x="1257" d="M61 0zM61 879v133h172v-150q0 -45 52 -45q51 0 51 45v144q0 31 -13.5 50t-37.5 19h-41v82h41q51 0 51 66v137q0 45 -51 45t-52 -45v-150h-167v133q0 88 60 121t155 33q94 0 156.5 -32.5t62.5 -121.5v-110q0 -53 -30 -82t-95 -33q129 -12 129 -98v-141q0 -43 -17.5 -73 t-47 -48.5t-70.5 -25.5t-88 -7q-94 0 -157 33t-63 121zM154 -20l895 1499h131l-897 -1499h-129zM737 160v82l219 467h240v-729h-176v180h-283zM887 250h141v364z" />
<glyph unicode="&#xbf;" horiz-adv-x="907" d="M55 0zM55 262v164q0 45 4 76.5t11 57.5t19.5 46.5t30.5 40.5l154 178q27 31 40 76t13 82v76h314v-133q0 -55 -14.5 -101.5t-51.5 -89.5l-151 -172q-29 -35 -41.5 -63.5t-12.5 -71.5v-195q0 -92 97 -92q94 0 94 92v224h295v-193q0 -88 -29 -146.5t-83 -94t-130 -51 t-172 -15.5q-88 0 -159.5 15.5t-123 50t-78 94t-26.5 145.5zM327 1222v236h314v-236h-314z" />
<glyph unicode="&#xc0;" horiz-adv-x="1040" d="M70 0v1217q0 66 34.5 119t95 89.5t143.5 56t179 19.5q94 0 176 -19.5t142.5 -56t95.5 -90t35 -118.5v-1217h-346v578h-205v-578h-350zM70 0zM162 1694l67 172l404 -197l-47 -123zM420 768h205v457q0 92 -103 92q-102 0 -102 -92v-457z" />
<glyph unicode="&#xc1;" horiz-adv-x="1040" d="M70 0v1217q0 66 34.5 119t95 89.5t143.5 56t179 19.5q94 0 176 -19.5t142.5 -56t95.5 -90t35 -118.5v-1217h-346v578h-205v-578h-350zM70 0zM346 1669l403 197l68 -172l-424 -148zM420 768h205v457q0 92 -103 92q-102 0 -102 -92v-457z" />
<glyph unicode="&#xc2;" horiz-adv-x="1040" d="M70 0v1217q0 66 34.5 119t95 89.5t143.5 56t179 19.5q94 0 176 -19.5t142.5 -56t95.5 -90t35 -118.5v-1217h-346v578h-205v-578h-350zM70 0zM258 1546l182 320h160l182 -320h-158l-106 193l-107 -193h-153zM420 768h205v457q0 92 -103 92q-102 0 -102 -92v-457z" />
<glyph unicode="&#xc3;" horiz-adv-x="1040" d="M70 0v1217q0 66 34.5 119t95 89.5t143.5 56t179 19.5q94 0 176 -19.5t142.5 -56t95.5 -90t35 -118.5v-1217h-346v578h-205v-578h-350zM70 0zM178 1645q25 104 76 144t117 40q43 0 82 -13.5t73.5 -30t63.5 -29.5t53 -13q51 0 64 108l155 -47q-25 -113 -84 -156.5 t-126 -43.5q-37 0 -74 12t-71 27.5t-63.5 27.5t-56.5 12q-39 0 -65 -110zM420 768h205v457q0 92 -103 92q-102 0 -102 -92v-457z" />
<glyph unicode="&#xc4;" horiz-adv-x="1040" d="M70 0v1217q0 66 34.5 119t95 89.5t143.5 56t179 19.5q94 0 176 -19.5t142.5 -56t95.5 -90t35 -118.5v-1217h-346v578h-205v-578h-350zM70 0zM217 1587v242h217v-242h-217zM420 768h205v457q0 92 -103 92q-102 0 -102 -92v-457zM604 1587v242h217v-242h-217z" />
<glyph unicode="&#xc5;" horiz-adv-x="1040" d="M70 0v1217q0 66 34.5 119t95 89.5t143.5 56t179 19.5q94 0 176 -19.5t142.5 -56t95.5 -90t35 -118.5v-1217h-346v578h-205v-578h-350zM70 0zM315 1706q0 174 205 174q203 0 203 -174q0 -176 -203 -176q-205 0 -205 176zM418 1706q0 -86 102 -86q105 0 105 86 q0 90 -105 90q-102 0 -102 -90zM420 768h205v457q0 92 -103 92q-102 0 -102 -92v-457z" />
<glyph unicode="&#xc6;" horiz-adv-x="1443" d="M70 0v1176q0 66 34.5 118t95 88.5t143.5 56t179 19.5h871v-198h-420v-367h407v-193h-407v-499h422v-201h-770v578h-205v-578h-350zM420 768h205v508h-103q-102 0 -102 -92v-416z" />
<glyph unicode="&#xc7;" horiz-adv-x="987" d="M61 0zM61 260v936q0 86 35 145.5t95.5 94t143.5 50t179 15.5q94 0 172 -15.5t134.5 -51t87 -94t30.5 -146.5v-274h-322v305q0 92 -102 92t-102 -92v-994q0 -92 102 -92t102 92v336h322v-305q0 -88 -30.5 -146.5t-87 -94t-134.5 -51t-172 -15.5q-96 0 -179 15.5t-143.5 50 t-95.5 94t-35 145.5zM348 -391l21 305h311l-145 -305h-187z" />
<glyph unicode="&#xc8;" horiz-adv-x="894" d="M76 0v1458h768v-198h-420v-367h407v-193h-407v-499h422v-201h-770zM76 0zM178 1694l67 172l404 -197l-47 -123z" />
<glyph unicode="&#xc9;" horiz-adv-x="894" d="M76 0v1458h768v-198h-420v-367h407v-193h-407v-499h422v-201h-770zM76 0zM291 1669l403 197l68 -172l-424 -148z" />
<glyph unicode="&#xca;" horiz-adv-x="894" d="M76 0v1458h768v-198h-420v-367h407v-193h-407v-499h422v-201h-770zM76 0zM199 1546l182 320h160l182 -320h-158l-106 193l-107 -193h-153z" />
<glyph unicode="&#xcb;" horiz-adv-x="894" d="M76 0v1458h768v-198h-420v-367h407v-193h-407v-499h422v-201h-770zM76 0zM154 1587v242h217v-242h-217zM541 1587v242h217v-242h-217z" />
<glyph unicode="&#xcc;" horiz-adv-x="516" d="M-31 1694l67 172l404 -197l-47 -123zM0 0zM84 0v1458h348v-1458h-348z" />
<glyph unicode="&#xcd;" horiz-adv-x="516" d="M84 0v1458h348v-1458h-348zM84 0zM88 1669l403 197l68 -172l-424 -148z" />
<glyph unicode="&#xce;" horiz-adv-x="516" d="M-2 1546l182 320h160l182 -320h-158l-106 193l-107 -193h-153zM0 0zM84 0v1458h348v-1458h-348z" />
<glyph unicode="&#xcf;" horiz-adv-x="516" d="M-41 1587v242h217v-242h-217zM0 0zM84 0v1458h348v-1458h-348zM346 1587v242h217v-242h-217z" />
<glyph unicode="&#xd0;" horiz-adv-x="1052" d="M0 700v193h90v565h440q461 0 461 -344v-772q0 -342 -465 -342h-436v700h-90zM438 178h47q158 0 158 94v922q0 96 -158 96h-47v-397h99v-193h-99v-522z" />
<glyph unicode="&#xd1;" horiz-adv-x="1040" d="M70 0v1196q0 86 34.5 145.5t95 94t143.5 50t179 15.5q94 0 176 -15.5t142.5 -51t95.5 -94t35 -146.5v-1194h-346v1225q0 92 -103 92q-102 0 -102 -92v-1225h-350zM70 0zM178 1645q25 104 76 144t117 40q43 0 82 -13.5t73.5 -30t63.5 -29.5t53 -13q51 0 64 108l155 -47 q-25 -113 -84 -156.5t-126 -43.5q-37 0 -74 12t-71 27.5t-63.5 27.5t-56.5 12q-39 0 -65 -110z" />
<glyph unicode="&#xd2;" d="M61 0zM61 260v936q0 86 35 145.5t95.5 94t143.5 50t179 15.5q94 0 176 -15.5t142.5 -51t95.5 -94t35 -146.5v-932q0 -88 -35 -146.5t-95.5 -94t-142.5 -51t-176 -15.5q-96 0 -179 15.5t-143.5 50t-95.5 94t-35 145.5zM215 1694l67 172l404 -197l-47 -123zM412 231 q0 -92 102 -92t102 92v994q0 92 -102 92t-102 -92v-994z" />
<glyph unicode="&#xd3;" d="M61 0zM61 260v936q0 86 35 145.5t95.5 94t143.5 50t179 15.5q94 0 176 -15.5t142.5 -51t95.5 -94t35 -146.5v-932q0 -88 -35 -146.5t-95.5 -94t-142.5 -51t-176 -15.5q-96 0 -179 15.5t-143.5 50t-95.5 94t-35 145.5zM340 1669l403 197l68 -172l-424 -148zM412 231 q0 -92 102 -92t102 92v994q0 92 -102 92t-102 -92v-994z" />
<glyph unicode="&#xd4;" d="M61 0zM61 260v936q0 86 35 145.5t95.5 94t143.5 50t179 15.5q94 0 176 -15.5t142.5 -51t95.5 -94t35 -146.5v-932q0 -88 -35 -146.5t-95.5 -94t-142.5 -51t-176 -15.5q-96 0 -179 15.5t-143.5 50t-95.5 94t-35 145.5zM250 1546l182 320h160l182 -320h-158l-106 193 l-107 -193h-153zM412 231q0 -92 102 -92t102 92v994q0 92 -102 92t-102 -92v-994z" />
<glyph unicode="&#xd5;" d="M61 0zM61 260v936q0 86 35 145.5t95.5 94t143.5 50t179 15.5q94 0 176 -15.5t142.5 -51t95.5 -94t35 -146.5v-932q0 -88 -35 -146.5t-95.5 -94t-142.5 -51t-176 -15.5q-96 0 -179 15.5t-143.5 50t-95.5 94t-35 145.5zM170 1645q25 104 76 144t117 40q43 0 82 -13.5 t73.5 -30t63.5 -29.5t53 -13q51 0 64 108l155 -47q-25 -113 -84 -156.5t-126 -43.5q-37 0 -74 12t-71 27.5t-63.5 27.5t-56.5 12q-39 0 -65 -110zM412 231q0 -92 102 -92t102 92v994q0 92 -102 92t-102 -92v-994z" />
<glyph unicode="&#xd6;" d="M61 0zM61 260v936q0 86 35 145.5t95.5 94t143.5 50t179 15.5q94 0 176 -15.5t142.5 -51t95.5 -94t35 -146.5v-932q0 -88 -35 -146.5t-95.5 -94t-142.5 -51t-176 -15.5q-96 0 -179 15.5t-143.5 50t-95.5 94t-35 145.5zM209 1587v242h217v-242h-217zM412 231q0 -92 102 -92 t102 92v994q0 92 -102 92t-102 -92v-994zM596 1587v242h217v-242h-217z" />
<glyph unicode="&#xd7;" horiz-adv-x="1085" d="M143 479l283 283l-283 282l115 115l283 -282l282 282l117 -117l-281 -282l281 -283l-115 -115l-282 281l-283 -281z" />
<glyph unicode="&#xd8;" d="M61 260v936q0 86 35 145.5t95.5 94t143.5 50t179 15.5q59 0 115.5 -6t105.5 -20l35 88h131l-53 -138q53 -37 84 -93t31 -138v-932q0 -88 -35 -146.5t-95.5 -94t-142.5 -51t-176 -15.5q-131 0 -229 27l-45 -119h-129l65 168q-53 35 -84 91t-31 138zM412 231q0 -92 102 -92 t102 92v600l-204 -526v-74zM412 637l204 528v60q0 92 -102 92t-102 -92v-588z" />
<glyph unicode="&#xd9;" horiz-adv-x="1017" d="M70 0zM70 264v1194h346v-1225q0 -47 21.5 -69.5t72.5 -22.5q96 0 96 92v1225h342v-1196q0 -86 -32.5 -145.5t-91 -94t-138.5 -50t-176 -15.5q-94 0 -174 15.5t-139.5 51t-93 94t-33.5 146.5zM213 1694l67 172l404 -197l-47 -123z" />
<glyph unicode="&#xda;" horiz-adv-x="1017" d="M70 0zM70 264v1194h346v-1225q0 -47 21.5 -69.5t72.5 -22.5q96 0 96 92v1225h342v-1196q0 -86 -32.5 -145.5t-91 -94t-138.5 -50t-176 -15.5q-94 0 -174 15.5t-139.5 51t-93 94t-33.5 146.5zM336 1669l403 197l68 -172l-424 -148z" />
<glyph unicode="&#xdb;" horiz-adv-x="1017" d="M70 0zM70 264v1194h346v-1225q0 -47 21.5 -69.5t72.5 -22.5q96 0 96 92v1225h342v-1196q0 -86 -32.5 -145.5t-91 -94t-138.5 -50t-176 -15.5q-94 0 -174 15.5t-139.5 51t-93 94t-33.5 146.5zM246 1546l182 320h160l182 -320h-158l-106 193l-107 -193h-153z" />
<glyph unicode="&#xdc;" horiz-adv-x="1017" d="M70 0zM70 264v1194h346v-1225q0 -47 21.5 -69.5t72.5 -22.5q96 0 96 92v1225h342v-1196q0 -86 -32.5 -145.5t-91 -94t-138.5 -50t-176 -15.5q-94 0 -174 15.5t-139.5 51t-93 94t-33.5 146.5zM207 1587v242h217v-242h-217zM594 1587v242h217v-242h-217z" />
<glyph unicode="&#xdd;" d="M4 0zM4 1458h354l174 -627l173 627h315l-338 -911v-547h-356v547zM359 1669l403 197l68 -172l-424 -148z" />
<glyph unicode="&#xde;" horiz-adv-x="1028" d="M76 0v1458h348v-254h92q461 0 461 -344v-225q0 -342 -465 -342h-88v-293h-348zM424 471h47q158 0 158 94v375q0 96 -158 96h-47v-565z" />
<glyph unicode="&#xdf;" horiz-adv-x="1974" d="M61 0zM61 262v240h322v-271q0 -92 102 -92q51 0 77 25.5t26 87.5v127q0 41 -17.5 86t-60.5 80l-291 237q-78 61 -110.5 122t-32.5 153v143q0 170 106.5 235.5t319.5 65.5q94 0 172 -15.5t134 -51t87 -94t31 -146.5v-190h-322v221q0 92 -102 92t-103 -100v-101 q0 -31 3.5 -53.5t11.5 -40.5t22.5 -33.5t36.5 -34.5l309 -247q68 -53 102 -123t34 -168v-180q0 -156 -111 -218.5t-322 -62.5q-94 0 -171.5 15.5t-134 51t-87.5 94t-31 146.5zM1048 262v240h322v-271q0 -92 102 -92q51 0 77 25.5t26 87.5v127q0 41 -17.5 86t-60.5 80 l-291 237q-78 61 -110.5 122t-32.5 153v143q0 170 106.5 235.5t319.5 65.5q94 0 172 -15.5t134 -51t87 -94t31 -146.5v-190h-322v221q0 92 -102 92t-103 -100v-101q0 -31 3.5 -53.5t11.5 -40.5t22.5 -33.5t36.5 -34.5l309 -247q68 -53 102 -123t34 -168v-180 q0 -156 -111 -218.5t-322 -62.5q-94 0 -171.5 15.5t-134 51t-87.5 94t-31 146.5z" />
<glyph unicode="&#xe0;" horiz-adv-x="1040" d="M70 0v1217q0 66 34.5 119t95 89.5t143.5 56t179 19.5q94 0 176 -19.5t142.5 -56t95.5 -90t35 -118.5v-1217h-346v578h-205v-578h-350zM70 0zM162 1694l67 172l404 -197l-47 -123zM420 768h205v457q0 92 -103 92q-102 0 -102 -92v-457z" />
<glyph unicode="&#xe1;" horiz-adv-x="1040" d="M70 0v1217q0 66 34.5 119t95 89.5t143.5 56t179 19.5q94 0 176 -19.5t142.5 -56t95.5 -90t35 -118.5v-1217h-346v578h-205v-578h-350zM70 0zM346 1669l403 197l68 -172l-424 -148zM420 768h205v457q0 92 -103 92q-102 0 -102 -92v-457z" />
<glyph unicode="&#xe2;" horiz-adv-x="1040" d="M70 0v1217q0 66 34.5 119t95 89.5t143.5 56t179 19.5q94 0 176 -19.5t142.5 -56t95.5 -90t35 -118.5v-1217h-346v578h-205v-578h-350zM70 0zM258 1546l182 320h160l182 -320h-158l-106 193l-107 -193h-153zM420 768h205v457q0 92 -103 92q-102 0 -102 -92v-457z" />
<glyph unicode="&#xe3;" horiz-adv-x="1040" d="M70 0v1217q0 66 34.5 119t95 89.5t143.5 56t179 19.5q94 0 176 -19.5t142.5 -56t95.5 -90t35 -118.5v-1217h-346v578h-205v-578h-350zM70 0zM178 1645q25 104 76 144t117 40q43 0 82 -13.5t73.5 -30t63.5 -29.5t53 -13q51 0 64 108l155 -47q-25 -113 -84 -156.5 t-126 -43.5q-37 0 -74 12t-71 27.5t-63.5 27.5t-56.5 12q-39 0 -65 -110zM420 768h205v457q0 92 -103 92q-102 0 -102 -92v-457z" />
<glyph unicode="&#xe4;" horiz-adv-x="1040" d="M70 0v1217q0 66 34.5 119t95 89.5t143.5 56t179 19.5q94 0 176 -19.5t142.5 -56t95.5 -90t35 -118.5v-1217h-346v578h-205v-578h-350zM70 0zM217 1587v242h217v-242h-217zM420 768h205v457q0 92 -103 92q-102 0 -102 -92v-457zM604 1587v242h217v-242h-217z" />
<glyph unicode="&#xe5;" horiz-adv-x="1040" d="M70 0v1217q0 66 34.5 119t95 89.5t143.5 56t179 19.5q94 0 176 -19.5t142.5 -56t95.5 -90t35 -118.5v-1217h-346v578h-205v-578h-350zM70 0zM315 1706q0 174 205 174q203 0 203 -174q0 -176 -203 -176q-205 0 -205 176zM418 1706q0 -86 102 -86q105 0 105 86 q0 90 -105 90q-102 0 -102 -90zM420 768h205v457q0 92 -103 92q-102 0 -102 -92v-457z" />
<glyph unicode="&#xe6;" horiz-adv-x="1443" d="M70 0v1176q0 66 34.5 118t95 88.5t143.5 56t179 19.5h871v-198h-420v-367h407v-193h-407v-499h422v-201h-770v578h-205v-578h-350zM70 0zM420 768h205v508h-103q-102 0 -102 -92v-416z" />
<glyph unicode="&#xe7;" horiz-adv-x="987" d="M61 0zM61 260v936q0 86 35 145.5t95.5 94t143.5 50t179 15.5q94 0 172 -15.5t134.5 -51t87 -94t30.5 -146.5v-274h-322v305q0 92 -102 92t-102 -92v-994q0 -92 102 -92t102 92v336h322v-305q0 -88 -30.5 -146.5t-87 -94t-134.5 -51t-172 -15.5q-96 0 -179 15.5t-143.5 50 t-95.5 94t-35 145.5zM348 -391l21 305h311l-145 -305h-187z" />
<glyph unicode="&#xe8;" horiz-adv-x="894" d="M76 0v1458h768v-198h-420v-367h407v-193h-407v-499h422v-201h-770zM76 0zM178 1694l67 172l404 -197l-47 -123z" />
<glyph unicode="&#xe9;" horiz-adv-x="894" d="M76 0v1458h768v-198h-420v-367h407v-193h-407v-499h422v-201h-770zM76 0zM291 1669l403 197l68 -172l-424 -148z" />
<glyph unicode="&#xea;" horiz-adv-x="894" d="M76 0v1458h768v-198h-420v-367h407v-193h-407v-499h422v-201h-770zM76 0zM199 1546l182 320h160l182 -320h-158l-106 193l-107 -193h-153z" />
<glyph unicode="&#xeb;" horiz-adv-x="894" d="M76 0v1458h768v-198h-420v-367h407v-193h-407v-499h422v-201h-770zM76 0zM154 1587v242h217v-242h-217zM541 1587v242h217v-242h-217z" />
<glyph unicode="&#xec;" horiz-adv-x="516" d="M-31 1694l67 172l404 -197l-47 -123zM0 0zM84 0v1458h348v-1458h-348z" />
<glyph unicode="&#xed;" horiz-adv-x="516" d="M84 0v1458h348v-1458h-348zM84 0zM88 1669l403 197l68 -172l-424 -148z" />
<glyph unicode="&#xee;" horiz-adv-x="516" d="M-2 1546l182 320h160l182 -320h-158l-106 193l-107 -193h-153zM0 0zM84 0v1458h348v-1458h-348z" />
<glyph unicode="&#xef;" horiz-adv-x="516" d="M-41 1587v242h217v-242h-217zM0 0zM84 0v1458h348v-1458h-348zM346 1587v242h217v-242h-217z" />
<glyph unicode="&#xf0;" horiz-adv-x="1052" d="M0 0zM0 700v193h90v565h440q461 0 461 -344v-772q0 -342 -465 -342h-436v700h-90zM438 178h47q158 0 158 94v922q0 96 -158 96h-47v-397h99v-193h-99v-522z" />
<glyph unicode="&#xf1;" horiz-adv-x="1040" d="M70 0v1196q0 86 34.5 145.5t95 94t143.5 50t179 15.5q94 0 176 -15.5t142.5 -51t95.5 -94t35 -146.5v-1194h-346v1225q0 92 -103 92q-102 0 -102 -92v-1225h-350zM70 0zM178 1645q25 104 76 144t117 40q43 0 82 -13.5t73.5 -30t63.5 -29.5t53 -13q51 0 64 108l155 -47 q-25 -113 -84 -156.5t-126 -43.5q-37 0 -74 12t-71 27.5t-63.5 27.5t-56.5 12q-39 0 -65 -110z" />
<glyph unicode="&#xf2;" d="M61 0zM61 260v936q0 86 35 145.5t95.5 94t143.5 50t179 15.5q94 0 176 -15.5t142.5 -51t95.5 -94t35 -146.5v-932q0 -88 -35 -146.5t-95.5 -94t-142.5 -51t-176 -15.5q-96 0 -179 15.5t-143.5 50t-95.5 94t-35 145.5zM215 1694l67 172l404 -197l-47 -123zM412 231 q0 -92 102 -92t102 92v994q0 92 -102 92t-102 -92v-994z" />
<glyph unicode="&#xf3;" d="M61 0zM61 260v936q0 86 35 145.5t95.5 94t143.5 50t179 15.5q94 0 176 -15.5t142.5 -51t95.5 -94t35 -146.5v-932q0 -88 -35 -146.5t-95.5 -94t-142.5 -51t-176 -15.5q-96 0 -179 15.5t-143.5 50t-95.5 94t-35 145.5zM340 1669l403 197l68 -172l-424 -148zM412 231 q0 -92 102 -92t102 92v994q0 92 -102 92t-102 -92v-994z" />
<glyph unicode="&#xf4;" d="M61 0zM61 260v936q0 86 35 145.5t95.5 94t143.5 50t179 15.5q94 0 176 -15.5t142.5 -51t95.5 -94t35 -146.5v-932q0 -88 -35 -146.5t-95.5 -94t-142.5 -51t-176 -15.5q-96 0 -179 15.5t-143.5 50t-95.5 94t-35 145.5zM250 1546l182 320h160l182 -320h-158l-106 193 l-107 -193h-153zM412 231q0 -92 102 -92t102 92v994q0 92 -102 92t-102 -92v-994z" />
<glyph unicode="&#xf5;" d="M61 0zM61 260v936q0 86 35 145.5t95.5 94t143.5 50t179 15.5q94 0 176 -15.5t142.5 -51t95.5 -94t35 -146.5v-932q0 -88 -35 -146.5t-95.5 -94t-142.5 -51t-176 -15.5q-96 0 -179 15.5t-143.5 50t-95.5 94t-35 145.5zM170 1645q25 104 76 144t117 40q43 0 82 -13.5 t73.5 -30t63.5 -29.5t53 -13q51 0 64 108l155 -47q-25 -113 -84 -156.5t-126 -43.5q-37 0 -74 12t-71 27.5t-63.5 27.5t-56.5 12q-39 0 -65 -110zM412 231q0 -92 102 -92t102 92v994q0 92 -102 92t-102 -92v-994z" />
<glyph unicode="&#xf6;" d="M61 0zM61 260v936q0 86 35 145.5t95.5 94t143.5 50t179 15.5q94 0 176 -15.5t142.5 -51t95.5 -94t35 -146.5v-932q0 -88 -35 -146.5t-95.5 -94t-142.5 -51t-176 -15.5q-96 0 -179 15.5t-143.5 50t-95.5 94t-35 145.5zM209 1587v242h217v-242h-217zM412 231q0 -92 102 -92 t102 92v994q0 92 -102 92t-102 -92v-994zM596 1587v242h217v-242h-217z" />
<glyph unicode="&#xf7;" horiz-adv-x="1085" d="M61 225zM61 678v166h963v-166h-963zM376 225v236h330v-236h-330zM376 1024v236h330v-236h-330z" />
<glyph unicode="&#xf8;" d="M61 0zM61 260v936q0 86 35 145.5t95.5 94t143.5 50t179 15.5q59 0 115.5 -6t105.5 -20l35 88h131l-53 -138q53 -37 84 -93t31 -138v-932q0 -88 -35 -146.5t-95.5 -94t-142.5 -51t-176 -15.5q-131 0 -229 27l-45 -119h-129l65 168q-53 35 -84 91t-31 138zM412 231 q0 -92 102 -92t102 92v600l-204 -526v-74zM412 637l204 528v60q0 92 -102 92t-102 -92v-588z" />
<glyph unicode="&#xf9;" horiz-adv-x="1017" d="M70 0zM70 264v1194h346v-1225q0 -47 21.5 -69.5t72.5 -22.5q96 0 96 92v1225h342v-1196q0 -86 -32.5 -145.5t-91 -94t-138.5 -50t-176 -15.5q-94 0 -174 15.5t-139.5 51t-93 94t-33.5 146.5zM213 1694l67 172l404 -197l-47 -123z" />
<glyph unicode="&#xfa;" horiz-adv-x="1017" d="M70 0zM70 264v1194h346v-1225q0 -47 21.5 -69.5t72.5 -22.5q96 0 96 92v1225h342v-1196q0 -86 -32.5 -145.5t-91 -94t-138.5 -50t-176 -15.5q-94 0 -174 15.5t-139.5 51t-93 94t-33.5 146.5zM336 1669l403 197l68 -172l-424 -148z" />
<glyph unicode="&#xfb;" horiz-adv-x="1017" d="M70 0zM70 264v1194h346v-1225q0 -47 21.5 -69.5t72.5 -22.5q96 0 96 92v1225h342v-1196q0 -86 -32.5 -145.5t-91 -94t-138.5 -50t-176 -15.5q-94 0 -174 15.5t-139.5 51t-93 94t-33.5 146.5zM246 1546l182 320h160l182 -320h-158l-106 193l-107 -193h-153z" />
<glyph unicode="&#xfc;" horiz-adv-x="1017" d="M70 0zM70 264v1194h346v-1225q0 -47 21.5 -69.5t72.5 -22.5q96 0 96 92v1225h342v-1196q0 -86 -32.5 -145.5t-91 -94t-138.5 -50t-176 -15.5q-94 0 -174 15.5t-139.5 51t-93 94t-33.5 146.5zM207 1587v242h217v-242h-217zM594 1587v242h217v-242h-217z" />
<glyph unicode="&#xfd;" d="M4 0zM4 1458h354l174 -627l173 627h315l-338 -911v-547h-356v547zM359 1669l403 197l68 -172l-424 -148z" />
<glyph unicode="&#xfe;" horiz-adv-x="1028" d="M76 0v1458h348v-254h92q461 0 461 -344v-225q0 -342 -465 -342h-88v-293h-348zM76 0zM424 471h47q158 0 158 94v375q0 96 -158 96h-47v-565z" />
<glyph unicode="&#xff;" d="M4 0zM4 1458h354l174 -627l173 627h315l-338 -911v-547h-356v547zM232 1587v242h217v-242h-217zM619 1587v242h217v-242h-217z" />
<glyph unicode="&#x152;" horiz-adv-x="1435" d="M61 283v893q0 66 35 118t95.5 88.5t143.5 56t179 19.5h870v-198h-419v-367h407v-193h-407v-499h421v-201h-872q-96 0 -179 19.5t-143.5 56.5t-95.5 89t-35 118zM412 274q0 -92 102 -92h102v1094h-102q-102 0 -102 -92v-910z" />
<glyph unicode="&#x153;" horiz-adv-x="1435" d="M61 0zM61 283v893q0 66 35 118t95.5 88.5t143.5 56t179 19.5h870v-198h-419v-367h407v-193h-407v-499h421v-201h-872q-96 0 -179 19.5t-143.5 56.5t-95.5 89t-35 118zM412 274q0 -92 102 -92h102v1094h-102q-102 0 -102 -92v-910z" />
<glyph unicode="&#x178;" d="M4 0zM4 1458h354l174 -627l173 627h315l-338 -911v-547h-356v547zM232 1587v242h217v-242h-217zM619 1587v242h217v-242h-217z" />
<glyph unicode="&#x2c6;" horiz-adv-x="595" d="M35 1546l182 320h160l182 -320h-158l-106 193l-107 -193h-153z" />
<glyph unicode="&#x2dc;" horiz-adv-x="806" d="M61 1645q25 104 76 144t117 40q43 0 82 -13.5t73.5 -30t63.5 -29.5t53 -13q51 0 64 108l155 -47q-25 -113 -84 -156.5t-126 -43.5q-37 0 -74 12t-71 27.5t-63.5 27.5t-56.5 12q-39 0 -65 -110z" />
<glyph unicode="&#x2000;" horiz-adv-x="940" />
<glyph unicode="&#x2001;" horiz-adv-x="1880" />
<glyph unicode="&#x2002;" horiz-adv-x="940" />
<glyph unicode="&#x2003;" horiz-adv-x="1880" />
<glyph unicode="&#x2004;" horiz-adv-x="626" />
<glyph unicode="&#x2005;" horiz-adv-x="470" />
<glyph unicode="&#x2006;" horiz-adv-x="313" />
<glyph unicode="&#x2007;" horiz-adv-x="313" />
<glyph unicode="&#x2008;" horiz-adv-x="235" />
<glyph unicode="&#x2009;" horiz-adv-x="376" />
<glyph unicode="&#x200a;" horiz-adv-x="104" />
<glyph unicode="&#x2010;" horiz-adv-x="475" d="M31 655v156h411v-156h-411z" />
<glyph unicode="&#x2011;" horiz-adv-x="475" d="M31 655v156h411v-156h-411z" />
<glyph unicode="&#x2012;" horiz-adv-x="475" d="M31 655v156h411v-156h-411z" />
<glyph unicode="&#x2013;" horiz-adv-x="718" d="M31 655v156h655v-156h-655z" />
<glyph unicode="&#x2014;" horiz-adv-x="1458" d="M31 655v156h1394v-156h-1394z" />
<glyph unicode="&#x2018;" horiz-adv-x="473" d="M61 1458h328l23 -414h-197z" />
<glyph unicode="&#x2019;" horiz-adv-x="473" d="M61 1044l23 414h328l-154 -414h-197z" />
<glyph unicode="&#x201a;" horiz-adv-x="473" d="M61 -178l23 414h328l-154 -414h-197z" />
<glyph unicode="&#x201c;" horiz-adv-x="882" d="M61 1458h328l23 -414h-197zM471 1458h328l22 -414h-196z" />
<glyph unicode="&#x201d;" horiz-adv-x="882" d="M61 1044l23 414h328l-154 -414h-197zM471 1044l23 414h327l-153 -414h-197z" />
<glyph unicode="&#x201e;" horiz-adv-x="882" d="M61 -178l23 414h328l-154 -414h-197zM471 -178l23 414h327l-153 -414h-197z" />
<glyph unicode="&#x2022;" horiz-adv-x="786" d="M92 741q0 61 23.5 116.5t63.5 95.5t95.5 63.5t116.5 23.5t116.5 -23.5t95.5 -63.5t63.5 -95t23.5 -117q0 -61 -23.5 -116.5t-63.5 -95.5t-95.5 -63.5t-116.5 -23.5t-116.5 23.5t-95.5 63.5t-63.5 95.5t-23.5 116.5z" />
<glyph unicode="&#x2026;" horiz-adv-x="2263" d="M61 0v236h330v-236h-330zM61 0zM966 0v236h330v-236h-330zM1871 0v236h330v-236h-330z" />
<glyph unicode="&#x202f;" horiz-adv-x="376" />
<glyph unicode="&#x2039;" horiz-adv-x="452" d="M31 696v66l389 303v-154l-242 -180l242 -180v-150z" />
<glyph unicode="&#x203a;" horiz-adv-x="452" d="M31 401v150l241 180l-241 180v154l389 -303v-66z" />
<glyph unicode="&#x205f;" horiz-adv-x="470" />
<glyph unicode="&#x20ac;" horiz-adv-x="1040" d="M43 502l41 166h115v157h-156l41 164h115v174q0 98 34.5 164t99 104.5t156 54t203.5 15.5q84 0 156 -5t137 -15l-51 -195q-51 14 -110.5 22.5t-131.5 8.5q-25 0 -50.5 -6t-46 -19.5t-33.5 -36t-13 -53.5v-213h305l-45 -164h-260v-157h219l-45 -166h-174v-248 q0 -31 13 -53.5t33.5 -35.5t46.5 -19.5t50 -6.5q72 0 131.5 8.5t110.5 22.5l51 -195q-66 -10 -137.5 -15t-155.5 -5q-113 0 -204 15.5t-155.5 54t-99 104.5t-34.5 164v209h-156z" />
<glyph unicode="&#x2122;" horiz-adv-x="1290" d="M35 1325v133h497v-133h-172v-557h-147v557h-178zM637 770v688h166l133 -354l131 354h162v-688h-139v379l-152 -385l-164 401v-395h-137z" />
<glyph unicode="&#x25fc;" horiz-adv-x="1454" d="M0 0v1454h1454v-1454h-1454z" />
</font>
</defs>
</svg>
