<?xml version="1.0" standalone="no"?>
<!DOCTYPE svg PUBLIC "-//W3C//DTD SVG 1.1//EN" "http://www.w3.org/Graphics/SVG/1.1/DTD/svg11.dtd" >
<svg xmlns="http://www.w3.org/2000/svg" xmlns:xlink="http://www.w3.org/1999/xlink" version="1.1">
<metadata></metadata>
<defs>
<font id="headline_twohplhs" horiz-adv-x="821" >
<font-face units-per-em="2048" ascent="1638" descent="-410" />
<missing-glyph horiz-adv-x="299" />
<glyph horiz-adv-x="0" />
<glyph unicode="&#xd;" horiz-adv-x="299" />
<glyph unicode=" "  horiz-adv-x="299" />
<glyph unicode="&#x09;" horiz-adv-x="299" />
<glyph unicode="&#xa0;" horiz-adv-x="299" />
<glyph unicode="!" horiz-adv-x="276" d="M25 426q12 492 4 1192h176q-20 -219 -27 -412q-4 -125 0 -356q2 -272 0 -444q-16 4 -31 4q-20 0 -44.5 -9.5t-30.5 -9.5q-23 0 -47 35zM33 8v209l143 -14v-195h-143z" />
<glyph unicode="$" horiz-adv-x="673" d="M14 229l2 21l109 98q20 -4 31 -29q14 -37 18 -43q31 -33 47 -43q29 -23 58 -26l6 10q4 158 4 494q-2 2 -158 225q-80 184 -74 272q12 162 119 234q37 25 113 41l6 10l-4 123q14 16 45 14q61 -2 55 -4l8 -14q-6 -102 -4 -127q33 -4 97 -29q69 -33 143 -137l-2 -21 q-37 -37 -121 -88q-45 63 -47 66q-31 35 -64 43q-12 -14 -4 -74l2 -379q125 -162 172 -241q84 -147 84 -271q0 -94 -47 -180q-59 -92 -213 -147q0 -53 -4 -156l-16 -12q-10 6 -25 6q-6 0 -20.5 -2t-20.5 -2q-23 0 -30 20l4 144q-8 8 -24.5 8t-22.5 2q-158 45 -222 194z M225 1169q10 -35 22.5 -71.5t37.5 -59.5l6 11l-2 254q-27 -6 -47 -31q-29 -68 -17 -103zM391 221l10 -4q74 43 68 143q-4 109 -68 189l-6 -6q0 -104 -4 -322z" />
<glyph unicode="(" horiz-adv-x="520" d="M80 606q-14 217 2 352q27 223 76 355q8 25 28 73q63 158 164 322q10 8 33 -4l61 -66l-4 -22q-244 -365 -239 -897q2 -330 157 -668q12 -4 11.5 -19.5t5.5 -19.5l59 -102q-2 -25 -23.5 -44.5t-43.5 -35.5q-29 0 -48 33q-14 27 -28 53q-190 367 -211 690z" />
<glyph unicode=")" horiz-adv-x="557" d="M96 -86q0 10 8 20q92 115 160 322q78 236 78 492q0 438 -217 858q-23 43 -16 55q12 6 33.5 33.5t39.5 27.5q6 0 15 -4q8 -18 96 -188q59 -117 86 -197q32 -67 57 -176q43 -188 43 -387q0 -532 -282 -924q-10 -6 -21 -6q-8 0 -15 8.5t-36 30t-29 35.5z" />
<glyph unicode="," horiz-adv-x="241" d="M12 217l144 -14v-195l-140 -254z" />
<glyph unicode="-" horiz-adv-x="503" d="M70 563v154l348 4l-25 -158h-323z" />
<glyph unicode="." horiz-adv-x="245" d="M12 8v209l144 -14v-195h-144z" />
<glyph unicode="0" horiz-adv-x="663" d="M0 698q-4 -10 2 -18l-2 332q31 170 61 340q51 199 185 266q16 2 33 2q51 0 163 -64q141 -297 142 -770q-1 -282 -52 -632q-37 -53 -73 -107q-45 -55 -105 -65q-23 -4 -43 -5q-94 0 -147 76q-35 51 -68 168q-37 133 -55 170q-14 45 -16 156q0 98 -25 151zM199 637 q10 -47 10 -162t14 -168q20 -86 84 -127l41 33q39 223 39 504q0 35 -18 567l-62 150q-47 4 -63 -45q-23 -68 -33 -78z" />
<glyph unicode="1" horiz-adv-x="389" d="M0 1204q0 82 103.5 205t103.5 209q100 -1 98 -64q-14 -303 -14 -784v-776q-18 -27 -45 -27q-12 0 -42 8.5t-48 8.5q-12 0 -25 -4q0 948 -14 1234q-39 -29 -54 -38q-31 -18 -57 -23q-6 27 -6 51z" />
<glyph unicode="2" horiz-adv-x="567" d="M0 6q240 676 334 1276q-23 23 -27 92q-2 53 -57 68q-16 4 -33 4q-88 0 -121 -80q-86 55 -86 123q0 20 10 43q74 86 203 86q106 0 172 -66q96 -119 97 -280q0 -115 -58 -311q-63 -227 -74 -304q-82 -221 -174 -497q6 -25 23 -25q8 0 27.5 11.5t27.5 13.5l221 -15 q4 -29 4 -53q0 -113 -116 -112q-37 0 -125 13t-129 13q-61 0 -99 -20z" />
<glyph unicode="3" horiz-adv-x="591" d="M0 76q0 43 19.5 85t48.5 50q25 -59 110 -59q37 0 74 12q104 88 104 274q0 94 -28 217q-10 43 -58 80l-86 58h-88v155q16 -4 31 -4q66 0 139 66q72 94 76 211q6 162 -123 233l-151 -49q-20 29 -41 57q-25 39 -25 64q0 12 4 22q90 70 189 70q147 0 241 -143 q49 -199 49 -297q0 -139 -69 -230q-6 -10 -45 -39q-31 -25 -31 -43q0 -12 14 -26q158 -139 158 -424q0 -101 -20 -205q-76 -201 -246 -231q-182 12 -246 96z" />
<glyph unicode="4" horiz-adv-x="673" d="M10 375q0 55 27 131q25 63 49 127q117 319 330 966q4 10 18.5 11.5t18.5 3.5q35 -2 110 -4l12 -13q6 -129 7 -540v-590q8 -6 20 -6q6 0 17.5 2t15.5 2q20 0 27 -21q-6 -23 0 -66.5t0 -66.5q-10 -10 -38 -9t-40 -11q2 -92 2 -283q-4 -14 -19 -16q-8 -2 -24 0q-23 2 -27 2 h-100l-8 18l6 293l-11 10q-129 0 -376 -14l-11 18q-6 27 -6 56zM180 467l8 -8l215 4l5 6q-2 207 -2 614h-7q-70 -207 -219 -616z" />
<glyph unicode="5" horiz-adv-x="673" d="M-20 90q4 29 32 68q37 55 43 62t13 7q12 0 26.5 -21.5t26.5 -23.5q78 -49 131 -49q27 0 51 8q172 80 172 367q0 45 -4 119q-10 162 -129 235q-47 53 -129 53q-16 0 -31 -2q-59 8 -106 -4l-10 15l116 653q-4 12 8 25h461q12 -10 13 -25q0 -10 -7.5 -30.5t-7.5 -33.5 q-2 -27 -26 -75q-98 -2 -297 2l-13 -17q-18 -111 -57 -338q14 -14 47 -20q49 -6 51 -6q123 -37 203 -154q72 -104 90 -239q10 -86 10 -164q0 -367 -237 -502q-82 -39 -170 -39q-82 0 -156 35q-31 20 -65.5 42.5t-48.5 51.5z" />
<glyph unicode="6" horiz-adv-x="684" d="M0 565q0 586 352 1043l4 4q72 -6 199 -4q10 -8 4 -43q-57 -70 -153 -219q-25 -25 -50 -76q-33 -63 -45 -82q-16 -25 -35.5 -80t-31.5 -78q-2 -4 6 -10q57 27 121 27q72 0 121 -33q180 -150 180 -477q-1 -94 -17 -244q-63 -281 -247 -318q-23 -12 -121 -8 q-104 25 -181 117q-68 86 -83 197q-23 143 -23 284zM184 602q4 -115 11 -227q16 -135 81 -211q31 -27 70 -27q14 0 29 6q43 16 63 68q15 45 29 90q18 117 18 217q0 154 -43 275q-33 96 -118 94q-82 -23 -113 -117q-6 -20 -27 -168z" />
<glyph unicode="7" horiz-adv-x="673" d="M39 1440l37 143q41 -2 123 0l422 -2q4 -29 -13 -76q-18 -53 -20 -77.5t-23 -86.5q-18 -53 -20 -88q-90 -416 -139 -710q-8 -49 -70 -535q-14 -18 -47 -16l-51 2q2 -2 -58 -2q-31 0 -47 14q23 227 66 418q-8 6 -4 12q10 10 10 13q82 475 211 950q6 14 -21 20 q-178 8 -282 -2q-4 4 -43 0q-29 -2 -31 23z" />
<glyph unicode="8" horiz-adv-x="673" d="M27 266q-23 143 6 226q0 39 22 92q20 43 41 88q18 25 148 178q-14 29 -47 65q-43 47 -52 60q-84 117 -84 282q0 135 60 234q86 137 241 137q80 0 151 -46t108 -118q45 -84 45 -207q0 -61 -13 -129q-33 -119 -155 -262l4 -24q205 -207 205 -457q0 -119 -43 -217 q-52 -113 -148 -158q-49 -25 -192 -30q-27 6 -80 22q-82 29 -142.5 103.5t-74.5 160.5zM205 379q0 -84 33 -146q49 -88 141 -79q69 4 102 59q41 70 41 166q0 139 -80 258q-18 25 -36 47q-23 31 -44 37q-25 -18 -94 -119q-4 -12 -30 -55q-18 -35 -19 -62q-14 -51 -14 -106z M236 1272q0 -137 120 -283q18 -4 36 21.5t26 29.5q82 109 82 232q0 68 -29 119l-39 41q-70 27 -98 16q-35 2 -84 -82q-14 -45 -14 -94z" />
<glyph unicode="9" horiz-adv-x="696" d="M25 1047q0 82 14 219q51 268 225 329q35 12 78 13q80 0 141 -39q74 -47 127 -162q57 -162 58 -379q0 -182 -41 -389q-74 -252 -160 -401q-8 -31 -33 -72q-39 -63 -43 -72l-80 -96l-202 2q-6 10 -7 23q0 20 34 51.5t38 44.5q207 281 272 463l-6 4q-55 -20 -114 -21 q-90 0 -144 49q-158 141 -157 433zM201 1065q0 -158 45 -268q33 -78 114 -74q55 14 74 49q59 110 55 391q-10 68 -18 133q-14 78 -51 121q-29 31 -74 31q-35 0 -63 -21q-61 -78 -74 -219q-8 -80 -8 -143z" />
<glyph unicode=":" horiz-adv-x="245" d="M12 49v209l144 -14v-195h-144zM12 664v208l144 -14v-194h-144z" />
<glyph unicode=";" horiz-adv-x="239" d="M12 217l144 -14v-195l-140 -254zM12 664v208l144 -14v-194h-144z" />
<glyph unicode="?" horiz-adv-x="483" d="M-66 1509q0 23 11 45q74 86 200 86q106 1 174 -65q109 -131 109 -266q0 -90 -55 -224q-49 -119 -101 -239q-31 -68 -118 -301q0 -131 -23 -176q-27 -53 -119 -78l13 276q51 141 108 275q47 104 64 166q27 92 59 297q-23 23 -25 92q-4 55 -57 67q-16 4 -35 4 q-90 0 -119 -79q-86 51 -86 120zM12 8v209l144 -14v-195h-144z" />
<glyph unicode="A" d="M0 0q6 100 53 287q53 201 64 293q35 172 121 517t122 521q12 10 31 10q10 0 32.5 -5t37.5 -5q23 -182 88 -514q68 -348 90 -514l12 -39q8 -94 49.5 -274.5t49.5 -276.5q-25 -10 -138 -10q-29 47 -39 141q-14 111 -22 137q-123 23 -219 23q-72 0 -131 -12 q-18 -29 -27 -113q-10 -98 -20 -127q-20 -59 -74 -59q-33 0 -80 20zM250 463l250 -12q-29 291 -88 489q1 8 1 19q0 26 -7 63q-8 41 -17 80z" />
<glyph unicode="B" horiz-adv-x="796" d="M0 -20v93q0 408 27 1545q156 -12 311 -25q176 -29 254 -161q53 -88 53 -222q0 -61 -12 -129q-68 -147 -152 -207q63 -35 117 -114q68 -100 96 -127l15 14q-6 -18 8 -20l-10 -230q-37 -10 -41 -61q-4 -68 -13 -82q-12 -78 -88 -141q-74 -53 -145 -107q-55 -20 -135 -26 q-26 -2 -63.5 -2t-84.5 2q-50 1 -84.5 1t-52.5 -1zM160 121q205 0 262 78q86 119 86 272q0 88 -31 164q-77 149 -302 149h-3q-12 -276 -12 -663zM172 915q17 -2 34 -2q110 0 193 80q80 76 80 213q0 56 -12 113q-98 158 -295 158v-562z" />
<glyph unicode="C" horiz-adv-x="741" d="M-14 637q0 96 14 293q16 248 53 370q61 197 207 285q57 35 129 35q82 0 157 -45t111 -117l39 -98q-90 -57 -121 -57q-16 0 -28 8q1 6 1 11q0 63 -102 136q-31 12 -65 12q-43 0 -62 -22q-90 -78 -124 -248q-23 -137 -45 -276q0 -145 2 -293q4 -184 38 -299 q47 -154 158 -226q14 -2 29 -2q86 0 153 123q14 8 17.5 43t9.5 45q31 -51 111 -59q6 -16 6 -37q0 -61 -77 -160.5t-206 -99.5q-59 0 -143 21q-262 172 -262 657z" />
<glyph unicode="D" horiz-adv-x="798" d="M0 174l14 1444q252 0 252 1l-80 1q106 0 170 -23q132 -72 271 -256q92 -254 92 -528q0 -317 -121 -575q-204 -257 -395 -257q-13 0 -25 1l-158 14zM193 188h63q113 35 184 160q60 107 72 232q14 166 14 270q0 250 -77 426q-121 164 -256 164v-1252z" />
<glyph unicode="E" horiz-adv-x="561" d="M-2 801q4 467 31 817l479 -29v-127h-303q-14 -133 -15 -508q76 -20 289 -20q-4 -10 -4 -21q0 -16 10.5 -50t10.5 -50q0 -29 -23 -49q-98 18 -154 18q-94 0 -143 -41v-600q25 -12 70 -12q57 0 71 -2q0 -2 15 -21q10 37 43 37q14 0 49 -11t49 -11v-141h-473q0 876 -1 876 t-1 -55z" />
<glyph unicode="F" horiz-adv-x="565" d="M0 -20v1609l29 29q55 -12 125 -12q37 0 110.5 5t108.5 5q63 0 112 -12l15 -152q-39 -25 -97 -25q-25 0 -71.5 5.5t-69.5 5.5q-53 0 -88 -21l14 -452l297 -21q-4 -18 0 -57q6 -51 7 -64q0 -63 -54 -65h-11q-36 0 -85 11q-57 13 -82 13q-45 0 -86 -24q14 -190 14 -778h-188 z" />
<glyph unicode="G" horiz-adv-x="829" d="M0 674q0 96 10 272q10 190 13 268q35 154 67 222q55 117 160 176q66 26 130 26h5q61 0 125 -20q102 -33 158 -184q30 -30 30 -54q0 -35 -57 -63q-41 -20 -84 -41q-8 63 -51 113q-49 53 -113 53q-33 0 -67 -17q-154 -152 -154 -497q0 -74 8 -218.5t8 -209.5 q33 -170 52 -213q47 -115 153 -135q201 96 201 419q0 90 -16 211q-53 -14 -185 -14q-4 18 -4 41q0 55 31 131q47 25 108 25q37 0 113 -12.5t115 -12.5q4 -137 4 -197q0 -252 -43 -411q-59 -213 -207 -338q-117 -39 -164 -39q-51 0 -84 25q-262 201 -262 694z" />
<glyph unicode="H" horiz-adv-x="808" d="M0 1591q16 41 72 41h-4q0 -2 110 -14q8 -63 8 -135q0 -51 -5 -147.5t-5 -143.5q0 -115 23 -205q192 0 192 -1l-29 -1q86 2 162 23q11 102 11 276v29q-1 73 -1 131q0 116 3 174q12 0 53 8t61 8q55 0 56 -47q0 -12 -5 -28q-2 -6 -2 -13q0 -16 17 -37l20 -24 q-41 -147 -41 -395q0 -63 6 -261q25 -18 25 -45q0 -10 -6 -35.5t-4 -39.5v-670q-29 -12 -60 -45q-45 -49 -53 -55q2 4 21 28q10 14 6 31l-86 27l-8 757q-33 0 -98.5 12.5t-98.5 12.5q-53 0 -94 -25q-13 7 -25 7q-20 0 -35 -21v-756q-68 -8 -86 -8q-84 0 -84 64q0 14 4 30 q0 57 3 748v66q0 407 -23 679z" />
<glyph unicode="I" horiz-adv-x="305" d="M0 8q29 1134 29 1526v84h200q-32 -318 -32 -790v-29l4 -822v3q-16 4 -35 4q-23 0 -55.5 -6.5t-44.5 -6.5q-39 0 -66 37z" />
<glyph unicode="J" horiz-adv-x="544" d="M-61 8v195q51 -27 106 -27q84 0 149.5 51.5t65.5 116.5q15 737 15 1121q0 85 -1 153h201q-31 -293 -31 -776q0 -250 9 -475q-4 -199 -179 -293q-123 -70 -282 -70q-33 0 -53 4z" />
<glyph unicode="K" horiz-adv-x="829" d="M0 8q29 1134 29 1526v84h200q-28 -279 -28 -654v-26q139 274 350 674h201q-57 -119 -263 -494q-190 -346 -213 -401q189 -269 490 -740q-14 -10 -39 -10q-2 0 -76 8q-24 3 -44 3q-27 0 -48 -5q-141 199 -358 512q2 -130 2 -256.5t-2 -248.5q-16 4 -35 4q-23 0 -55.5 -6.5 t-44.5 -6.5q-39 0 -66 37z" />
<glyph unicode="L" horiz-adv-x="561" d="M0 498q29 53 29 155q0 115 14 160l-43 14q31 18 27 52q-6 43 2 59l14 680q12 -4 29 -4q18 0 54 10t52 10q31 0 53 -22q-27 -240 -27 -604q0 -59 1 -121q1 -195 1 -341q0 -291 -3 -384h22q97 0 273 -15v-167q-35 6 -80 6q-37 0 -117 -6.5t-117 -6.5q-117 0 -170 50 q0 49 13.5 150t13.5 151q0 100 -41 174z" />
<glyph unicode="M" horiz-adv-x="1026" d="M0 35q29 1098 29 1567q25 16 65 16q41 0 72 -16q31 -94 61 -189q37 -111 84 -184q39 -213 168 -445q199 444 318 811q49 14 82 15q48 0 71 -29q-2 -102 -18 -780q-11 -398 -11 -674q0 -79 1 -147q-27 -14 -58 -15q-16 0 -47 6q-39 6 -55 9q-12 131 -12 278q0 125 12 344 q12 246 14 354l-26 23q-139 -369 -265 -688h-34q-51 106 -125 346q-72 227 -125 334q-10 -164 -13 -385v-451q0 -86 -2 -155q-12 6 -30 6q-14 0 -45 -5.5t-45 -5.5q-55 0 -66 60z" />
<glyph unicode="N" horiz-adv-x="790" d="M0 791q0 414 16 827h134q51 -188 174 -504q141 -354 186 -500q2 96 14 398q10 240 11 387q0 106 -5 205h185l-29 -811h-5q-24 0 -58 -15q8 -12 28 -12q31 0 35 -2v-784h-127l-381 1003l-28 -997q-16 -8 -41 -11q-16 -2 -49 1.5t-44 3.5q-16 397 -16 811z" />
<glyph unicode="O" horiz-adv-x="897" d="M0 688q0 311 98 674q39 92 116 167t159 89q20 6 43 6q80 0 200 -94q106 -111 140 -322l32 -360l29 -41q-20 -10 -27.5 -16.5t-17.5 -24.5q14 -16 43 -53l-4 -39q-25 -6 -25 -45q0 -4 2 -13v-10l3 -4q-27 -125 -86 -350q-66 -197 -226 -272q-43 -12 -92 -13q-76 0 -180 33 q-207 244 -207 688zM188 666q0 -334 134 -516q31 -16 65 -17q74 0 119 68q14 31 26 51q35 63 35 100t-18 60q59 37 59 181q0 23 -2 50t-2 68q0 62 4 155q3 75 3 131.5t-3 94.5q-20 260 -200 374q-113 -43 -152 -153q-14 -68 -51 -211q0 -68 -8.5 -214.5t-8.5 -221.5z" />
<glyph unicode="P" horiz-adv-x="759" d="M0 -6q16 229 16 612v264q0 467 25 748q432 0 584 -215q75 -180 75 -340q0 -199 -110 -334q-66 -66 -189 -111q-106 -39 -213 -75v-563q-31 -14 -65 -15q-47 0 -123 29zM215 764h7q34 0 118 29q164 74 164 311q0 57 -10 139q-2 23 -36 40t-34 36q0 8 6 20q-45 27 -90 52 q-53 30 -92 30h-2q-16 0 -31 -4v-653z" />
<glyph unicode="Q" horiz-adv-x="858" d="M-2 754q0 227 51 506q37 92 76 186q49 106 131 149q66 23 123 23q94 0 184 -64q111 -111 164 -315q29 -106 29 -301q0 -35 -2 -106.5t-2 -108.5q0 -115 10 -188q-29 -66 -49 -173q-31 -164 -33 -169l96 -29l-35 -170q-100 12 -163 12q-98 0 -144 -26q-14 0 -48 -2.5 t-50 -2.5q-88 0 -129 52q-209 262 -209 727zM174 831q0 -328 94 -591q18 -76 94 -76q39 0 119 29q94 248 94 591v8q0 318 -79 605q-76 57 -138 57q-45 0 -75 -31q-109 -246 -109 -592z" />
<glyph unicode="R" horiz-adv-x="747" d="M0 -20v1638h289q111 -10 211 -88q92 -72 147 -178q27 -145 27 -256q0 -227 -105 -357q-23 -41 -131 -90q-73 -34 -73 -84q0 -8 2 -16q49 -94 150.5 -283.5t150.5 -285.5h-7q-19 0 -61 -8q-50 -10 -72 -9q-80 0 -100 80q-47 182 -238 457q-28 -88 -28 -230v-28 q2 -108 2 -174t-2 -88h-162zM178 981q0 -117 12 -213q18 -6 37 -6q35 0 84 33q63 43 82 49q98 174 99 295q-1 51 -15 100q-72 174 -272 211q-27 -391 -27 -469z" />
<glyph unicode="S" horiz-adv-x="600" d="M4 254q76 -80 168 -80q53 0 107 27q67 71 67 177q0 79 -39 216q-82 162 -164 321q-94 203 -94 349q0 168 119 295q147 59 211 59q74 0 137 -45l-12 -178l-78 24q-51 14 -84 15q-25 0 -43 -7q-84 -63 -84 -174q0 -33 8 -65q94 -195 191 -391q108 -234 108 -405 q0 -144 -65 -277q-74 -104 -252 -135q-49 8 -102.5 18t-94.5 29q-10 40 -10 107q0 52 6 120z" />
<glyph unicode="T" horiz-adv-x="608" d="M0 1618q59 -12 133 -12q53 0 158.5 8t157.5 8q47 0 88 -4v-156q-16 4 -35 4q-27 0 -74 -10q-55 -12 -76 -14l-6 -1462q-34 -12 -73 -12t-83 12l-28 49v1427h-148q-14 29 -14 162z" />
<glyph unicode="U" horiz-adv-x="804" d="M-6 786q0 125 11 366t11 347q0 63 -2 119h158q0 -29 -2 -434q-1 -89 -1 -168q0 -158 3 -277q2 -250 14 -463q2 -37 50 -69q72 -51 75 -55q53 0 62 14v20q8 -25 45 -24q27 0 39 18q74 59 90 221l-15 1211q12 0 57.5 7t69.5 7q78 0 78 -59q0 -15 -4 -33q-26 -223 -26 -648 v-32q-4 -461 -23 -653l35 -21q-16 -8 -111 -104q-84 -84 -151 -96q-80 -14 -133 -15q-123 0 -199 76q-88 88 -111 256q-6 145 -14 291q-6 92 -6 198z" />
<glyph unicode="V" horiz-adv-x="866" d="M0 1591h178q125 -655 236 -1089q10 51 110 549q68 334 97 553q139 0 178 14q-12 -158 -64 -395q-45 -199 -88 -398q-55 -279 -158 -831q-20 -12 -61 -12q-57 0 -63 -2q-20 37 -35 100q-10 57 -21 113q-186 803 -309 1398z" />
<glyph unicode="W" horiz-adv-x="1363" d="M0 1618h188q12 -203 82 -526q86 -391 105 -523q31 78 51 191q16 100 33 198l125 660h125q59 -356 200 -1063q45 174 107.5 531.5t107.5 531.5h174q-41 -260 -155 -807q-115 -537 -158 -817q-20 -12 -59 -12q-57 0 -66 -2q-18 63 -39 178q-25 125 -37 176q-25 94 -65 338 q-39 229 -74 348q-25 -84 -61 -277l-146 -763q-8 2 -76 2h-6q-42 0 -57 26z" />
<glyph unicode="X" horiz-adv-x="800" d="M2 8l262 785q-63 213 -127 428q-76 250 -135 397h201q55 -190 168 -559q53 197 155 559h203q-61 -150 -139 -404q-66 -217 -131 -434q90 -248 270 -772q-16 -37 -55 -37q-12 0 -48 6.5t-55 6.5q-18 0 -34 -4q-57 195 -172 577q-55 -199 -170 -577q-16 4 -35 4 q-20 0 -55 -6.5t-50 -6.5q-39 0 -53 37z" />
<glyph unicode="Y" horiz-adv-x="866" d="M0 1604q29 12 82 12q82 0 92 2q39 -98 113 -295q-1 -4 -1 -10q0 -35 29 -135h1q19 0 28 -74q12 -92 41 -117q141 262 231 617q114 14 114 16h-3q55 0 78 -45q-57 -170 -117 -342q-68 -203 -86 -336h-14q-92 -121 -109 -291q-3 -27 -3 -71q0 -88 11 -242q4 -66 4 -123 q0 -114 -16 -190q-16 -2 -59 -14.5t-66 -12.5q-37 0 -63 27q0 63 9 213.5t9 230.5q0 244 -67 389q-86 274 -238 791z" />
<glyph unicode="Z" horiz-adv-x="694" d="M0 2q8 76 39 186q18 10 18 23q0 6 -3 15.5t-3 13.5q0 12 10 20l138 426q-14 12 -15 25q0 12 28 46t26 56q14 45 106 322q63 195 92 323q-288 23 -350 23h-8q0 63 43 137q16 0 72 2q20 1 36.5 1t28.5 -1q35 -2 68 -12h319q-27 -117 -96 -324q-76 -221 -103 -323l39 -37 l-65 -68q-74 -233 -221 -694q76 -25 209 -25h49q116 0 161 -8q2 -12 -10 -37.5t-12 -32.5q0 -12 22 -8q-31 4 -36 -24q-12 -45 -15 -47q-100 8 -286 12q-203 4 -281 10z" />
<glyph unicode="`" horiz-adv-x="632" d="M111 1475l65 131l387 -256l-47 -56z" />
<glyph unicode="a" horiz-adv-x="663" d="M0 330q0 51 27 270q82 184 231 203q86 -10 162 -78q26 71 26 108q0 48 -26 74q-35 20 -96 33q-53 8 -107 16q-46 -44 -107 -44q-10 0 -20 1q-2 16 -8 55.5t-6 57.5q0 61 57 92q29 -8 60 -8q33 0 95 12.5t93 12.5q78 0 129 -66l63 -113v-946q-10 6 -24 6q-16 0 -49 -10 t-45 -10q-33 0 -35 49q-37 -47 -115 -57q-61 -2 -125 -4q-180 111 -180 346zM166 406q0 -141 92 -234q14 -12 35 -12q49 0 78 41q55 51 55 159q0 77 -27 177q-43 57 -104 57q-53 0 -86 -43q2 -27 -10 -37q-20 -20 -31 -41q-2 -39 -2 -67z" />
<glyph unicode="b" horiz-adv-x="681" d="M-6 305q0 244 14 668q18 494 21 657h139v-581q111 69 184 69h2q35 0 66 -12q119 -63 149 -213q12 -135 25 -270q18 -14 18 -35q0 -12 -11 -51t-7 -62q0 -367 -188 -495q-49 -14 -93 -15q-55 0 -82 27l-77 63q-14 -47 -15 -63h-139q-6 143 -6 313zM154 434q10 -90 20 -178 q23 -100 119 -109q139 80 139 336q0 53 -6 176q-6 90 -6 142v24q-6 47 -44 81t-87 34q-10 0 -23 -2q-66 -49 -86 -147q-14 -57 -14 -182.5t-12 -174.5z" />
<glyph unicode="c" horiz-adv-x="598" d="M0 657q29 47 41 160t49 162q29 63 90.5 110.5t126.5 47.5q143 0 219 -207q-4 -43 -46 -63.5t-83 -39.5q-33 86 -32 88q-27 51 -72 52q-29 0 -54.5 -30t-25.5 -54q-33 -211 -33 -363q0 -217 66 -327q12 -12 76 -13q49 29 61 123l-14 12q8 2 18 2q31 0 72 -26 q34 -24 67 -49q-10 -135 -143 -219q-31 -27 -88 -27q-39 0 -96 12q-94 63 -136 187q-25 80 -36 235q-12 170 -27 227z" />
<glyph unicode="d" horiz-adv-x="692" d="M-2 477q0 152 45 408q8 127 168 219q35 12 74 12q109 0 168 -74l22 588h129q2 -139 2 -297q0 -246 -8 -674q-8 -487 -10 -675h-135q0 6 2 18q2 10 0 14q0 8 -9 13q-82 -59 -170 -60q-35 0 -65 11q-213 133 -213 497zM147 498q0 -201 86 -351q23 -18 54 -18q53 0 88 41 q84 184 84 412q-1 181 -58 331q-49 41 -98 41q-37 0 -57 -30q-98 -203 -99 -426z" />
<glyph unicode="e" horiz-adv-x="698" d="M0 698q0 12 23 25q37 150 69 219q57 119 156 168q23 8 47 8q61 0 199 -90q98 -160 98 -319q0 -37 -4 -74q14 -14 12 -51q-2 -33 -12 -58l-402 -14q-4 -57 -4 -88q0 -184 101 -266q10 -2 22 -2q74 0 127 92q0 57 21 67l-15 13q23 18 51 18q8 0 41 -4q25 -2 43 0 q2 -20 2 -41q0 -209 -172 -299q-23 -6 -49 -6q-76 0 -209 67q-131 254 -131 394q0 43 9 82l-21 14l35 6l-35 62q29 0 35 14q-4 14 -20.5 34.5t-16.5 28.5zM193 709q25 -14 71 -15q18 0 56 2t57 2q23 0 41 -2q0 109 -27 170q-10 39 -33 39h-10q-8 -2 -12 -2q-23 0 -41 17 q-55 -16 -72.5 -83t-29.5 -128z" />
<glyph unicode="f" horiz-adv-x="335" d="M4 1014v102l66 23q22 53 22 147v8v62q-2 39 -2 59q0 207 135 252h129l4 -133q-10 4 -22 4q-78 0 -98 -68q14 -35 14 -77q0 -35 -14.5 -103.5t-14.5 -101.5q0 -39 15 -72h69v-127l-82 -6q-22 -785 -22 -977v-16q-12 -20 -41 -21q-12 0 -38 5.5t-38 5.5q-10 0 -16 -3v984 q-63 0 -66 53z" />
<glyph unicode="g" horiz-adv-x="679" d="M-8 496q0 172 47 374q53 229 250 260q70 0 166 -83q8 59 69 59q21 0 68 -8q-1 -62 -1 -141t1 -177q4 -246 4 -313q0 -338 -31 -576q-6 -55 -67 -96q-51 -29 -105 -57q-63 -14 -125 -14q-121 0 -200 53l10 137q121 -43 209 -43q53 0 90 15.5t45 60.5q14 74 16 78 q-12 6 -22 6q-16 0 -47 -24.5t-54 -20.5q-131 0 -221 88q-102 170 -102 422zM156 524q0 -152 32 -311q49 -84 109 -84q20 0 41 12q108 163 108 452v5q0 129 -20 272q-6 43 -45 77t-80 34q-47 0 -74 -49q-71 -178 -71 -402v-6z" />
<glyph unicode="h" horiz-adv-x="651" d="M2 -23q0 1284 21 1680l143 -15q0 -33 2 -194q1 -60 1 -109t-1 -88q-4 -111 -16 -204l28 -21q76 100 182 100q37 0 76 -14q47 -6 78 -53q6 -8 39 -84q2 -47 2 -479q0 -318 12 -504q-23 -27 -49 -27q-14 0 -42.5 8.5t-47.5 8.5q-14 0 -27 -5v934q-35 51 -84 52 q-39 0 -73 -31l-80 -86q-10 -135 -12 -328v-391q0 -76 -2 -135q-31 -14 -150 -15z" />
<glyph unicode="i" horiz-adv-x="243" d="M-2 524v563q30 12 70 12.5t88 -12.5v-1075q-16 -12 -45 -16q-20 -2 -54 0q-43 2 -45 2q-14 184 -14 526zM12 1362v211l144 -17v-194h-144z" />
<glyph unicode="j" horiz-adv-x="436" d="M-2 -106q59 8 117 18q72 14 72 77q0 7 -1 15q4 25 -8 49q-20 39 -20 41h-15q53 164 54 445q0 49 -2 146t-2 144q0 154 14 261q25 12 65 12q64 0 72 2q10 -190 10 -406q0 -408 -37 -854q-86 -86 -270 -125q-16 23 -20 88q-6 57 -29 72v15zM193 1339q2 57 4 115 q10 74 57 100q76 0 119 -43q-2 -63 -4 -127q-7 -61 -64 -61q-10 0 -22 2z" />
<glyph unicode="k" horiz-adv-x="733" d="M-2 1391q25 25 29 147q2 98 71 98q18 0 41 -6q66 0 76 -20v-52q0 -86 -4 -217q-8 -199 -8 -276q0 -186 26 -320q41 35 86 140q55 127 78 162q52 75 127 75h2q39 0 86 -18q0 -78 -99 -221.5t-99 -220.5q0 -80 71 -154q63 -162 176 -504q-29 -14 -82 -14h-86 q-14 55 -71 200q-49 123 -62 205q-16 16 -36.5 33.5t-36.5 17.5t-33 -16q-39 -78 -39 -192q0 -31 3 -92.5t3 -92.5q0 -35 -2 -63q-29 -14 -76 -15h-78q-10 463 -34 1389z" />
<glyph unicode="l" horiz-adv-x="264" d="M-4 254q0 152 8 458t8 459q0 217 -12 398v7q0 46 55 46q14 0 44 -3t42 -3q14 0 25 2l8 -1598q-37 -45 -106 -45q-16 0 -27 5q-6 14 -41 14q-4 121 -4 260z" />
<glyph unicode="m" horiz-adv-x="1021" d="M-10 801q0 16 22.5 41.5t22.5 42.5q0 18 -27 43h12l15 141q33 12 65 12q59 0 88 -45q0 -16 15 -26q96 96 176 96q27 0 51 -10q76 -33 100 -95q29 45 95 80q53 23 106 47q14 -14 65.5 -29.5t67.5 -35.5q37 -72 47 -211q14 -223 15 -225q-5 -64 -5 -157q0 -168 17 -433 q-18 -33 -55 -33q-18 0 -53 9.5t-46 11.5q0 147 2 292q-2 190 -43 271q29 72 29 164q0 102 -41 163q-25 -10 -63.5 -13t-63.5 -13q-51 -102 -51 -217q0 -70 25 -105q-12 -98 -13 -274q0 -260 -2 -295q4 0 -53 2q-33 2 -41 -23l-59 48q10 152 10 290q0 303 -51 574 q-31 31 -47 26q-8 -31 -66.5 -47t-58.5 -47q0 -20 18 -53q-27 0 -25 -30.5t-8 -37.5q8 -109 11 -235q1 -25 1 -54q0 -73 -4 -175q-2 -162 -2 -226q-28 -9 -63 -9t-78 9q-6 51 -6 117q0 31 2 91.5t2 88.5q0 123 -25 199q14 43 15 256l-33 6q-12 16 -12 33z" />
<glyph unicode="n" horiz-adv-x="598" d="M-8 274q0 137 13 414t13 416h140q0 -59 14 -64q68 90 168 90q133 0 168 -145v-977h-148l-14 914q-27 27 -55 26q-20 0 -98 -47q-53 -147 -54 -405q0 -51 6 -246q2 -76 2 -136.5t-2 -105.5q-16 -14 -68 -14t-73 -14q-12 135 -12 294z" />
<glyph unicode="o" horiz-adv-x="669" d="M6 530q0 272 117 498q66 84 186 84q96 0 152 -63q127 -147 127 -431q0 -138 -33 -335q-31 -182 -188 -271q-31 -12 -62 -12q-94 0 -209 115q-90 182 -90 415zM170 317l53 -86q32 -50 76 -50q6 0 12 1q117 137 117 391q0 176 -55 332q-18 -2 -43 19.5t-41 21.5 q-12 0 -25 -6q-88 -102 -94 -297v-326z" />
<glyph unicode="p" horiz-adv-x="690" d="M-4 -66q0 147 10 476t10 495q0 96 -2 180q27 12 78 13q68 0 82 2v-53q12 -8 25 -9q18 0 46.5 34t55.5 34q29 8 55 8q111 0 199 -176q55 -287 55 -438q0 -332 -209 -498q-23 -4 -45 -4q-49 0 -182 63q-29 -29 -29 -92q0 -29 8.5 -88t8.5 -82q0 -78 -62 -78q-37 0 -100 27 q-4 84 -4 186zM180 522q0 -172 27 -280q29 -63 94 -64q12 0 27 4q110 140 110 365q0 131 -37 311q-10 82 -63 82q-43 0 -95.5 -47t-62.5 -88q1 -21 1 -92t-1 -191z" />
<glyph unicode="q" horiz-adv-x="804" d="M106 500q0 152 56 438q88 176 198 176q27 0 56 -8q27 0 55.5 -34t46.5 -34q12 0 25 9v53q10 1 21 1q54 0 141 -16q-4 -96 -5 -206q0 -162 10.5 -480.5t10.5 -461.5q0 -105 -4 -189q-63 -27 -101 -27q-61 0 -61 78q0 23 8 82.5t8 87.5q0 63 -28 92q-133 -63 -183 -63 q-23 0 -45 4q-209 166 -209 498zM279 551q0 -227 110 -369q14 -4 27 -4q66 0 94 64q27 109 27 280q-1 120 -1 191t1 92q-10 41 -62.5 88t-95.5 47q-53 0 -64 -82q-36 -175 -36 -300v-7z" />
<glyph unicode="r" horiz-adv-x="423" d="M0 6v1102q8 -2 18 -2q14 0 43 7t41 7q31 0 48 -26q0 -39 -9 -43q10 2 69.5 36.5t94.5 34.5q20 0 37 -8l12 -113q4 -47 -84 -83q-96 -41 -106 -95l-14 -817h-150z" />
<glyph unicode="s" horiz-adv-x="503" d="M0 199q53 -49 133 -49q39 0 78 14q63 45 63 113q0 12 -2 24l-176 270q-96 164 -96 303q0 51 12 103q72 106 172 137q150 0 211 -41v-158q-37 14 -92 15q-37 -1 -60 -1t-32 1q-63 -53 -64 -99q0 -20 17 -38q20 -49 164 -258q108 -159 108 -267v-2q0 -102 -82 -198 q-53 -78 -186 -78q-47 0 -156 16q-26 30 -26 88q0 49 14 105z" />
<glyph unicode="t" horiz-adv-x="438" d="M-6 1016q0 16 4 35q0 43 29 63q47 0 57 2q29 8 29 41q-12 80 -13 133q0 221 168 221q6 -27 6 -61q0 -33 -8 -105.5t-8 -105.5q0 -127 102 -147v-117q-4 -54 -61 -54q-8 0 -16 1l-29 -21q0 -37 2 -301q1 -98 1 -178t-1 -141q-4 -172 -16 -291l-136 14v918q-6 -1 -13 -1 q-41 -1 -67 23q-30 26 -30 72z" />
<glyph unicode="u" horiz-adv-x="636" d="M0 221v864q16 12 41 17q16 2 47 0q43 -2 51 -2q0 -41 15 -453q7 -194 7 -334q0 -56 -1 -104q18 -61 92 -62q45 0 76 27q75 103 75 271q0 106 -28 202q18 59 18 141q0 31 -3 91.5t-3 91.5q0 86 23 143q10 2 18 2q16 0 44 -10t44 -10q10 0 21 4l12 -1080q-19 -24 -54 -24 h-3q-8 0 -41 4q-25 2 -41 0q-8 4 -14.5 26.5t-20.5 22.5q-4 0 -13 -2q-31 -74 -139 -74q-41 0 -84 13q-66 27 -98 102q-20 68 -41 133z" />
<glyph unicode="v" horiz-adv-x="667" d="M-2 1065q0 20 8 41h162q27 -78 51 -318q23 -205 80 -307q63 246 78 312q41 176 55 321q18 -10 47 -12q20 -2 56 2q43 2 59 2q-55 -203 -117 -557q-68 -383 -110 -559q-23 -12 -45 -13q-8 0 -37 4.5t-52 2.5q-51 256 -182 858l-45 8q29 31 29 68q0 23 -18.5 70.5 t-18.5 76.5z" />
<glyph unicode="w" horiz-adv-x="968" d="M-2 1098q26 22 76 22h4q43 0 74 -12q16 -289 102 -612q37 74 63 223q31 172 56 237q-4 14 -4 27q0 27 19.5 69t19.5 62h79q31 -264 91 -414q-2 -22 -2 -42q0 -107 53 -175l125 625q78 9 78 10h-1q43 0 66 -33q-80 -371 -246 -1101h-80q-4 16 -47 278q-29 168 -65 262h-23 q12 23 13 51q0 31 -13 52h-12q-80 -293 -141 -637q-8 -8 -23 -8q-8 -2 -27 0q-23 2 -30 2q-31 51 -37 145q-12 135 -14 150q-59 287 -84 411q-47 240 -70 408z" />
<glyph unicode="x" horiz-adv-x="620" d="M0 0q18 98 84 287q70 197 90 293q-96 223 -147 510q53 24 91 24h3q59 0 84 -63q6 -18 26 -133q14 -84 48 -115q35 29 69 180q31 127 105 127q37 0 92 -27q-63 -182 -191 -530q53 -86 101 -266q53 -197 90 -273q-23 -12 -51 -16q-20 -2 -54 0q-45 2 -48 3t-56 161 q-33 94 -72 153q-35 -33 -74 -200q-31 -137 -106 -138q-35 0 -84 23z" />
<glyph unicode="y" horiz-adv-x="634" d="M0 1114q20 14 43 14q14 0 47 -9t49 -9q14 0 29 4q8 -131 39 -319q29 -162 57 -322q39 160 78 322q45 188 61 319q23 14 54 14h3q46 0 103 -34q-86 -342 -170 -684q-100 -406 -155 -689h-134q25 139 70 418q-66 322 -174 975z" />
<glyph unicode="z" horiz-adv-x="593" d="M0 2q8 76 39 186q18 10 18 23q0 6 -3 15.5t-3 13.5q0 12 10 20q109 313 236 715q-56 4 -127.5 4t-159.5 -4q0 61 45 139q338 0 451 8q-41 -166 -125 -415q-154 -455 -188 -564q122 -11 252 -11q37 0 75 1q2 -16 -16.5 -70.5t-32.5 -72.5q-127 2 -381 8q-45 0 -90 4z" />
<glyph unicode="&#xa8;" horiz-adv-x="559" d="M164 1319v158h106v-158h-106zM371 1323l6 154h100v-158z" />
<glyph unicode="&#xad;" horiz-adv-x="503" d="M70 563v154l348 4l-25 -158h-323z" />
<glyph unicode="&#xb4;" horiz-adv-x="641" d="M111 1350l387 256l65 -131l-405 -181z" />
<glyph unicode="&#xc0;" d="M0 0q6 100 53 287q53 201 64 293q35 172 121 517t122 521q12 10 31 10q10 0 32.5 -5t37.5 -5q23 -182 88 -514q68 -348 90 -514l12 -39q8 -94 49.5 -274.5t49.5 -276.5q-25 -10 -138 -10q-29 47 -39 141q-14 111 -22 137q-123 23 -219 23q-72 0 -131 -12 q-18 -29 -27 -113q-10 -98 -20 -127q-20 -59 -74 -59q-33 0 -80 20zM250 463l250 -12q-29 291 -88 489q4 29 -6 82q-8 41 -17 80z" />
<glyph unicode="&#xc1;" horiz-adv-x="823" d="M0 0q6 100 53 287q53 201 64 293q35 172 121 517t122 521q12 10 31 10q10 0 32.5 -5t37.5 -5q23 -182 88 -514q68 -348 90 -514l12 -39q8 -94 49.5 -274.5t49.5 -276.5q-25 -10 -138 -10q-29 47 -39 141q-14 111 -22 137q-123 23 -219 23q-72 0 -131 -12 q-18 -29 -27 -113q-10 -98 -20 -127q-20 -59 -74 -59q-33 0 -80 20zM213 1715l387 256l65 -131l-405 -181zM250 463l250 -12q-29 291 -88 489q4 29 -6 82q-8 41 -17 80z" />
<glyph unicode="&#xc2;" d="M0 0q6 100 53 287q53 201 64 293q35 172 121 517t122 521q12 10 31 10q10 0 32.5 -5t37.5 -5q23 -182 88 -514q68 -348 90 -514l12 -39q8 -94 49.5 -274.5t49.5 -276.5q-25 -10 -138 -10q-29 47 -39 141q-14 111 -22 137q-123 23 -219 23q-72 0 -131 -12 q-18 -29 -27 -113q-10 -98 -20 -127q-20 -59 -74 -59q-33 0 -80 20zM250 463l250 -12q-29 291 -88 489q4 29 -6 82q-8 41 -17 80z" />
<glyph unicode="&#xc3;" d="M0 0q6 100 53 287q53 201 64 293q35 172 121 517t122 521q12 10 31 10q10 0 32.5 -5t37.5 -5q23 -182 88 -514q68 -348 90 -514l12 -39q8 -94 49.5 -274.5t49.5 -276.5q-25 -10 -138 -10q-29 47 -39 141q-14 111 -22 137q-123 23 -219 23q-72 0 -131 -12 q-18 -29 -27 -113q-10 -98 -20 -127q-20 -59 -74 -59q-33 0 -80 20zM170 1724q80 147 119 147q20 0 83.5 -56t88.5 -56q43 0 100 106l64 -30q-104 -188 -160 -183q-31 4 -89 52.5t-75 48.5q-35 0 -71 -60zM250 463l250 -12q-29 291 -88 489q4 29 -6 82q-8 41 -17 80z" />
<glyph unicode="&#xc4;" d="M0 0q6 100 53 287q53 201 64 293q35 172 121 517t122 521q12 10 31 10q10 0 32.5 -5t37.5 -5q23 -182 88 -514q68 -348 90 -514l12 -39q8 -94 49.5 -274.5t49.5 -276.5q-25 -10 -138 -10q-29 47 -39 141q-14 111 -22 137q-123 23 -219 23q-72 0 -131 -12 q-18 -29 -27 -113q-10 -98 -20 -127q-20 -59 -74 -59q-33 0 -80 20zM248 1659v158h106v-158h-106zM250 463l250 -12q-29 291 -88 489q4 29 -6 82q-8 41 -17 80zM455 1663l6 154h100v-158z" />
<glyph unicode="&#xc5;" d="M0 0q6 100 53 287q53 201 64 293q35 172 121 517t122 521q12 10 31 10q10 0 32.5 -5t37.5 -5q23 -182 88 -514q68 -348 90 -514l12 -39q8 -94 49.5 -274.5t49.5 -276.5q-25 -10 -138 -10q-29 47 -39 141q-14 111 -22 137q-123 23 -219 23q-72 0 -131 -12 q-18 -29 -27 -113q-10 -98 -20 -127q-20 -59 -74 -59q-33 0 -80 20zM250 463l250 -12q-29 291 -88 489q4 29 -6 82q-8 41 -17 80z" />
<glyph unicode="&#xc8;" horiz-adv-x="561" d="M-2 801q4 467 31 817l479 -29v-127h-303q-14 -133 -15 -508q76 -20 289 -20q-4 -10 -4 -21q0 -16 10.5 -50t10.5 -50q0 -29 -23 -49q-98 18 -154 18q-94 0 -143 -41v-600q25 -12 70 -12q57 0 71 -2q0 -2 15 -21q10 37 43 37q14 0 49 -11t49 -11v-141h-473q0 1094 -2 821z M45 1805l65 131l387 -256l-47 -56z" />
<glyph unicode="&#xc9;" horiz-adv-x="559" d="M-2 801q4 467 31 817l479 -29v-127h-303q-14 -133 -15 -508q76 -20 289 -20q-4 -10 -4 -21q0 -16 10.5 -50t10.5 -50q0 -29 -23 -49q-98 18 -154 18q-94 0 -143 -41v-600q25 -12 70 -12q57 0 71 -2q0 -2 15 -21q10 37 43 37q14 0 49 -11t49 -11v-141h-473q0 1094 -2 821z M52 1690l387 256l65 -131l-405 -181z" />
<glyph unicode="&#xca;" horiz-adv-x="559" d="M-2 801q4 467 31 817l479 -29v-127h-303q-14 -133 -15 -508q76 -20 289 -20q-4 -10 -4 -21q0 -16 10.5 -50t10.5 -50q0 -29 -23 -49q-98 18 -154 18q-94 0 -143 -41v-600q25 -12 70 -12q57 0 71 -2q0 -2 15 -21q10 37 43 37q14 0 49 -11t49 -11v-141h-473q0 1094 -2 821z M104 1688l154 231h47l137 -241l-88 -31l-78 119l-82 -119z" />
<glyph unicode="&#xcb;" horiz-adv-x="561" d="M-2 801q4 467 31 817l479 -29v-127h-303q-14 -133 -15 -508q76 -20 289 -20q-4 -10 -4 -21q0 -16 10.5 -50t10.5 -50q0 -29 -23 -49q-98 18 -154 18q-94 0 -143 -41v-600q25 -12 70 -12q57 0 71 -2q0 -2 15 -21q10 37 43 37q14 0 49 -11t49 -11v-141h-473q0 1094 -2 821z M121 1653v158h106v-158h-106zM328 1657l6 154h100v-158z" />
<glyph unicode="&#xcc;" horiz-adv-x="335" d="M-94 1829l65 131l387 -256l-47 -56zM0 8q33 1272 29 1610h200q-33 -328 -32 -819q4 -870 4 -819q-16 4 -35 4q-23 0 -55.5 -6.5t-44.5 -6.5q-39 0 -66 37z" />
<glyph unicode="&#xcd;" horiz-adv-x="380" d="M-45 1735l387 256l65 -131l-405 -181zM0 8q33 1272 29 1610h200q-33 -328 -32 -819q4 -870 4 -819q-16 4 -35 4q-23 0 -55.5 -6.5t-44.5 -6.5q-39 0 -66 37z" />
<glyph unicode="&#xce;" horiz-adv-x="305" d="M-45 1683l154 231h47l137 -241l-88 -31l-78 119l-82 -119zM0 8q33 1272 29 1610h200q-33 -328 -32 -819q4 -870 4 -819q-16 4 -35 4q-23 0 -55.5 -6.5t-44.5 -6.5q-39 0 -66 37z" />
<glyph unicode="&#xcf;" horiz-adv-x="305" d="M-29 1655v158h106v-158h-106zM0 8q33 1272 29 1610h200q-33 -328 -32 -819q4 -870 4 -819q-16 4 -35 4q-23 0 -55.5 -6.5t-44.5 -6.5q-39 0 -66 37zM178 1659l6 154h100v-158z" />
<glyph unicode="&#xd1;" horiz-adv-x="790" d="M0 791q0 414 16 827h134q51 -188 174 -504q141 -354 186 -500q2 96 14 398q10 240 11 387q0 106 -5 205h185l-29 -811q-25 2 -63 -15q8 -12 28 -12q31 0 35 -2v-784h-127l-381 1003l-28 -997q-16 -8 -41 -11q-16 -2 -49 1.5t-44 3.5q-16 397 -16 811z" />
<glyph unicode="&#xd2;" horiz-adv-x="897" d="M0 688q0 311 98 674q39 92 116 167t159 89q20 6 43 6q80 0 200 -94q106 -111 140 -322l32 -360l29 -41q-20 -10 -27.5 -16.5t-17.5 -24.5q14 -16 43 -53l-4 -39q-25 -6 -25 -45q0 -4 2 -13v-10l3 -4q-27 -125 -86 -350q-66 -197 -226 -272q-43 -12 -92 -13q-76 0 -180 33 q-207 244 -207 688zM183 1813l65 131l387 -256l-47 -56zM188 666q0 -334 134 -516q31 -16 65 -17q74 0 119 68q14 31 26 51q37 66 35 104q0 33 -18 56q68 43 57 231q-4 68 2 223q6 150 0 226q-20 260 -200 374q-113 -43 -152 -153q-14 -68 -51 -211q0 -68 -8.5 -214.5 t-8.5 -221.5z" />
<glyph unicode="&#xd3;" horiz-adv-x="897" d="M0 688q0 311 98 674q39 92 116 167t159 89q20 6 43 6q80 0 200 -94q106 -111 140 -322l32 -360l29 -41q-20 -10 -27.5 -16.5t-17.5 -24.5q14 -16 43 -53l-4 -39q-25 -6 -25 -45q0 -4 2 -13v-10l3 -4q-27 -125 -86 -350q-66 -197 -226 -272q-43 -12 -92 -13q-76 0 -180 33 q-207 244 -207 688zM188 666q0 -334 134 -516q31 -16 65 -17q74 0 119 68q14 31 26 51q37 66 35 104q0 33 -18 56q68 43 57 231q-4 68 2 223q6 150 0 226q-20 260 -200 374q-113 -43 -152 -153q-14 -68 -51 -211q0 -68 -8.5 -214.5t-8.5 -221.5zM189 1694l387 256l65 -131 l-405 -181z" />
<glyph unicode="&#xd4;" horiz-adv-x="897" d="M0 688q0 311 98 674q39 92 116 167t159 89q20 6 43 6q80 0 200 -94q106 -111 140 -322l32 -360l29 -41q-20 -10 -27.5 -16.5t-17.5 -24.5q14 -16 43 -53l-4 -39q-25 -6 -25 -45q0 -4 2 -13v-10l3 -4q-27 -125 -86 -350q-66 -197 -226 -272q-43 -12 -92 -13q-76 0 -180 33 q-207 244 -207 688zM188 666q0 -334 134 -516q31 -16 65 -17q74 0 119 68q14 31 26 51q37 66 35 104q0 33 -18 56q68 43 57 231q-4 68 2 223q6 150 0 226q-20 260 -200 374q-113 -43 -152 -153q-14 -68 -51 -211q0 -68 -8.5 -214.5t-8.5 -221.5zM250 1690l154 231h47 l137 -241l-88 -31l-78 119l-82 -119z" />
<glyph unicode="&#xd5;" horiz-adv-x="897" d="M0 688q0 311 98 674q39 92 116 167t159 89q20 6 43 6q80 0 200 -94q106 -111 140 -322l32 -360l29 -41q-20 -10 -27.5 -16.5t-17.5 -24.5q14 -16 43 -53l-4 -39q-25 -6 -25 -45q0 -4 2 -13v-10l3 -4q-27 -125 -86 -350q-66 -197 -226 -272q-43 -12 -92 -13q-76 0 -180 33 q-207 244 -207 688zM188 666q0 -334 134 -516q31 -16 65 -17q74 0 119 68q14 31 26 51q37 66 35 104q0 33 -18 56q68 43 57 231q-4 68 2 223q6 150 0 226q-20 260 -200 374q-113 -43 -152 -153q-14 -68 -51 -211q0 -68 -8.5 -214.5t-8.5 -221.5zM188 1716q80 147 119 147 q20 0 83.5 -56t88.5 -56q43 0 100 106l64 -30q-104 -188 -160 -183q-31 4 -89 52.5t-75 48.5q-35 0 -71 -60z" />
<glyph unicode="&#xd6;" horiz-adv-x="897" d="M0 688q0 311 98 674q39 92 116 167t159 89q20 6 43 6q80 0 200 -94q106 -111 140 -322l32 -360l29 -41q-20 -10 -27.5 -16.5t-17.5 -24.5q14 -16 43 -53l-4 -39q-25 -6 -25 -45q0 -4 2 -13v-10l3 -4q-27 -125 -86 -350q-66 -197 -226 -272q-43 -12 -92 -13q-76 0 -180 33 q-207 244 -207 688zM188 666q0 -334 134 -516q31 -16 65 -17q74 0 119 68q14 31 26 51q37 66 35 104q0 33 -18 56q68 43 57 231q-4 68 2 223q6 150 0 226q-20 260 -200 374q-113 -43 -152 -153q-14 -68 -51 -211q0 -68 -8.5 -214.5t-8.5 -221.5zM248 1663v158h106v-158h-106 zM455 1667l6 154h100v-158z" />
<glyph unicode="&#xd9;" horiz-adv-x="804" d="M-6 786q0 125 11 366t11 347q0 63 -2 119h158q0 -29 -2 -434q-2 -266 2 -445q2 -250 14 -463q2 -37 50 -69q72 -51 75 -55q53 0 62 14v20q8 -25 45 -24q27 0 39 18q74 59 90 221l-15 1211q12 0 57.5 7t69.5 7q78 0 78 -59q0 -15 -4 -33q-27 -231 -26 -680 q-4 -461 -23 -653l35 -21q-16 -8 -111 -104q-84 -84 -151 -96q-80 -14 -133 -15q-123 0 -199 76q-88 88 -111 256q-6 145 -14 291q-6 92 -6 198zM129 1813l65 131l387 -256l-47 -56z" />
<glyph unicode="&#xda;" horiz-adv-x="804" d="M-6 786q0 125 11 366t11 347q0 63 -2 119h158q0 -29 -2 -434q-2 -266 2 -445q2 -250 14 -463q2 -37 50 -69q72 -51 75 -55q53 0 62 14v20q8 -25 45 -24q27 0 39 18q74 59 90 221l-15 1211q12 0 57.5 7t69.5 7q78 0 78 -59q0 -15 -4 -33q-27 -231 -26 -680 q-4 -461 -23 -653l35 -21q-16 -8 -111 -104q-84 -84 -151 -96q-80 -14 -133 -15q-123 0 -199 76q-88 88 -111 256q-6 145 -14 291q-6 92 -6 198zM158 1729l387 256l65 -131l-405 -181z" />
<glyph unicode="&#xdb;" horiz-adv-x="804" d="M-6 786q0 125 11 366t11 347q0 63 -2 119h158q0 -29 -2 -434q-2 -266 2 -445q2 -250 14 -463q2 -37 50 -69q72 -51 75 -55q53 0 62 14v20q8 -25 45 -24q27 0 39 18q74 59 90 221l-15 1211q12 0 57.5 7t69.5 7q78 0 78 -59q0 -15 -4 -33q-27 -231 -26 -680 q-4 -461 -23 -653l35 -21q-16 -8 -111 -104q-84 -84 -151 -96q-80 -14 -133 -15q-123 0 -199 76q-88 88 -111 256q-6 145 -14 291q-6 92 -6 198zM188 1690l154 231h47l137 -241l-88 -31l-78 119l-82 -119z" />
<glyph unicode="&#xdc;" horiz-adv-x="804" d="M-6 786q0 125 11 366t11 347q0 63 -2 119h158q0 -29 -2 -434q-2 -266 2 -445q2 -250 14 -463q2 -37 50 -69q72 -51 75 -55q53 0 62 14v20q8 -25 45 -24q27 0 39 18q74 59 90 221l-15 1211q12 0 57.5 7t69.5 7q78 0 78 -59q0 -15 -4 -33q-27 -231 -26 -680 q-4 -461 -23 -653l35 -21q-16 -8 -111 -104q-84 -84 -151 -96q-80 -14 -133 -15q-123 0 -199 76q-88 88 -111 256q-6 145 -14 291q-6 92 -6 198zM223 1663v158h106v-158h-106zM430 1667l6 154h100v-158z" />
<glyph unicode="&#xe0;" horiz-adv-x="661" d="M0 330q0 51 27 270q82 184 231 203q86 -10 162 -78q27 74 26 111q0 45 -26 71q-35 20 -96 33q-53 8 -107 16q-53 -51 -127 -43q-2 16 -8 55.5t-6 57.5q0 61 57 92q29 -8 60 -8q33 0 95 12.5t93 12.5q78 0 129 -66l63 -113v-946q-10 6 -24 6q-16 0 -49 -10t-45 -10 q-33 0 -35 49q-37 -47 -115 -57q-61 -2 -125 -4q-180 111 -180 346zM111 1475l65 131l387 -256l-47 -56zM166 406q0 -141 92 -234q14 -12 35 -12q49 0 78 41q55 51 55 159q0 77 -27 177q-43 57 -104 57q-53 0 -86 -43q2 -27 -10 -37q-20 -20 -31 -41q-2 -39 -2 -67z" />
<glyph unicode="&#xe1;" horiz-adv-x="661" d="M0 330q0 51 27 270q82 184 231 203q86 -10 162 -78q27 74 26 111q0 45 -26 71q-35 20 -96 33q-53 8 -107 16q-53 -51 -127 -43q-2 16 -8 55.5t-6 57.5q0 61 57 92q29 -8 60 -8q33 0 95 12.5t93 12.5q78 0 129 -66l63 -113v-946q-10 6 -24 6q-16 0 -49 -10t-45 -10 q-33 0 -35 49q-37 -47 -115 -57q-61 -2 -125 -4q-180 111 -180 346zM111 1350l387 256l65 -131l-405 -181zM166 406q0 -141 92 -234q14 -12 35 -12q49 0 78 41q55 51 55 159q0 77 -27 177q-43 57 -104 57q-53 0 -86 -43q2 -27 -10 -37q-20 -20 -31 -41q-2 -39 -2 -67z" />
<glyph unicode="&#xe2;" horiz-adv-x="661" d="M0 330q0 51 27 270q82 184 231 203q86 -10 162 -78q27 74 26 111q0 45 -26 71q-35 20 -96 33q-53 8 -107 16q-53 -51 -127 -43q-2 16 -8 55.5t-6 57.5q0 61 57 92q29 -8 60 -8q33 0 95 12.5t93 12.5q78 0 129 -66l63 -113v-946q-10 6 -24 6q-16 0 -49 -10t-45 -10 q-33 0 -35 49q-37 -47 -115 -57q-61 -2 -125 -4q-180 111 -180 346zM133 1329l154 231h47l137 -241l-88 -31l-78 119l-82 -119zM166 406q0 -141 92 -234q14 -12 35 -12q49 0 78 41q55 51 55 159q0 77 -27 177q-43 57 -104 57q-53 0 -86 -43q2 -27 -10 -37q-20 -20 -31 -41 q-2 -39 -2 -67z" />
<glyph unicode="&#xe3;" horiz-adv-x="661" d="M0 330q0 51 27 270q82 184 231 203q86 -10 162 -78q27 74 26 111q0 45 -26 71q-35 20 -96 33q-53 8 -107 16q-53 -51 -127 -43q-2 16 -8 55.5t-6 57.5q0 61 57 92q29 -8 60 -8q33 0 95 12.5t93 12.5q78 0 129 -66l63 -113v-946q-10 6 -24 6q-16 0 -49 -10t-45 -10 q-33 0 -35 49q-37 -47 -115 -57q-61 -2 -125 -4q-180 111 -180 346zM92 1366q80 147 119 147q20 0 83.5 -56t88.5 -56q43 0 100 106l64 -30q-104 -188 -160 -183q-31 4 -89 52.5t-75 48.5q-35 0 -71 -60zM166 406q0 -141 92 -234q14 -12 35 -12q49 0 78 41q55 51 55 159 q0 77 -27 177q-43 57 -104 57q-53 0 -86 -43q2 -27 -10 -37q-20 -20 -31 -41q-2 -39 -2 -67z" />
<glyph unicode="&#xe4;" horiz-adv-x="661" d="M0 330q0 51 27 270q82 184 231 203q86 -10 162 -78q27 74 26 111q0 45 -26 71q-35 20 -96 33q-53 8 -107 16q-53 -51 -127 -43q-2 16 -8 55.5t-6 57.5q0 61 57 92q29 -8 60 -8q33 0 95 12.5t93 12.5q78 0 129 -66l63 -113v-946q-10 6 -24 6q-16 0 -49 -10t-45 -10 q-33 0 -35 49q-37 -47 -115 -57q-61 -2 -125 -4q-180 111 -180 346zM164 1319v158h106v-158h-106zM166 406q0 -141 92 -234q14 -12 35 -12q49 0 78 41q55 51 55 159q0 77 -27 177q-43 57 -104 57q-53 0 -86 -43q2 -27 -10 -37q-20 -20 -31 -41q-2 -39 -2 -67zM371 1323 l6 154h100v-158z" />
<glyph unicode="&#xe5;" horiz-adv-x="665" d="M0 330q0 51 27 270q82 184 231 203q86 -10 162 -78q27 74 26 111q0 45 -26 71q-35 20 -96 33q-53 8 -107 16q-53 -51 -127 -43q-2 16 -8 55.5t-6 57.5q0 61 57 92q29 -8 60 -8q33 0 95 12.5t93 12.5q78 0 129 -66l63 -113v-946q-10 6 -24 6q-16 0 -49 -10t-45 -10 q-33 0 -35 49q-37 -47 -115 -57q-61 -2 -125 -4q-180 111 -180 346zM166 406q0 -141 92 -234q14 -12 35 -12q49 0 78 41q55 51 55 159q0 77 -27 177q-43 57 -104 57q-53 0 -86 -43q2 -27 -10 -37q-20 -20 -31 -41q-2 -39 -2 -67z" />
<glyph unicode="&#xe7;" horiz-adv-x="598" d="M0 657q29 47 41 160t49 162q29 63 90.5 110.5t126.5 47.5q143 0 219 -207q-4 -43 -46 -63.5t-83 -39.5q-33 86 -32 88q-27 51 -72 52q-29 0 -54.5 -30t-25.5 -54q-33 -211 -33 -363q0 -217 66 -327q12 -12 76 -13q49 29 61 123l-14 12q8 2 18 2q31 0 72 -26 q34 -24 67 -49q-10 -135 -143 -219q-31 -27 -88 -27q-39 0 -96 12q-94 63 -136 187q-25 80 -36 235q-12 170 -27 227z" />
<glyph unicode="&#xe8;" horiz-adv-x="698" d="M0 698q0 12 23 25q37 150 69 219q57 119 156 168q23 8 47 8q61 0 199 -90q98 -160 98 -319q0 -37 -4 -74q14 -14 12 -51q-2 -33 -12 -58l-402 -14q-4 -57 -4 -88q0 -184 101 -266q10 -2 22 -2q74 0 127 92q0 57 21 67l-15 13q23 18 51 18q8 0 41 -4q25 -2 43 0 q2 -20 2 -41q0 -209 -172 -299q-23 -6 -49 -6q-76 0 -209 67q-131 254 -131 394q0 43 9 82l-21 14l35 6l-35 62q29 0 35 14q-4 14 -20.5 34.5t-16.5 28.5zM111 1475l65 131l387 -256l-47 -56zM193 709q25 -14 71 -15q18 0 56 2t57 2q23 0 41 -2q0 109 -27 170q-10 39 -33 39 h-10q-8 -2 -12 -2q-23 0 -41 17q-55 -16 -72.5 -83t-29.5 -128z" />
<glyph unicode="&#xe9;" horiz-adv-x="698" d="M0 698q0 12 23 25q37 150 69 219q57 119 156 168q23 8 47 8q61 0 199 -90q98 -160 98 -319q0 -37 -4 -74q14 -14 12 -51q-2 -33 -12 -58l-402 -14q-4 -57 -4 -88q0 -184 101 -266q10 -2 22 -2q74 0 127 92q0 57 21 67l-15 13q23 18 51 18q8 0 41 -4q25 -2 43 0 q2 -20 2 -41q0 -209 -172 -299q-23 -6 -49 -6q-76 0 -209 67q-131 254 -131 394q0 43 9 82l-21 14l35 6l-35 62q29 0 35 14q-4 14 -20.5 34.5t-16.5 28.5zM111 1350l387 256l65 -131l-405 -181zM193 709q25 -14 71 -15q18 0 56 2t57 2q23 0 41 -2q0 109 -27 170 q-10 39 -33 39h-10q-8 -2 -12 -2q-23 0 -41 17q-55 -16 -72.5 -83t-29.5 -128z" />
<glyph unicode="&#xea;" horiz-adv-x="698" d="M0 698q0 12 23 25q37 150 69 219q57 119 156 168q23 8 47 8q61 0 199 -90q98 -160 98 -319q0 -37 -4 -74q14 -14 12 -51q-2 -33 -12 -58l-402 -14q-4 -57 -4 -88q0 -184 101 -266q10 -2 22 -2q74 0 127 92q0 57 21 67l-15 13q23 18 51 18q8 0 41 -4q25 -2 43 0 q2 -20 2 -41q0 -209 -172 -299q-23 -6 -49 -6q-76 0 -209 67q-131 254 -131 394q0 43 9 82l-21 14l35 6l-35 62q29 0 35 14q-4 14 -20.5 34.5t-16.5 28.5zM123 1317l154 231h47l137 -241l-88 -31l-78 119l-82 -119zM193 709q25 -14 71 -15q18 0 56 2t57 2q23 0 41 -2 q0 109 -27 170q-10 39 -33 39h-10q-8 -2 -12 -2q-23 0 -41 17q-55 -16 -72.5 -83t-29.5 -128z" />
<glyph unicode="&#xeb;" horiz-adv-x="698" d="M0 698q0 12 23 25q37 150 69 219q57 119 156 168q23 8 47 8q61 0 199 -90q98 -160 98 -319q0 -37 -4 -74q14 -14 12 -51q-2 -33 -12 -58l-402 -14q-4 -57 -4 -88q0 -184 101 -266q10 -2 22 -2q74 0 127 92q0 57 21 67l-15 13q23 18 51 18q8 0 41 -4q25 -2 43 0 q2 -20 2 -41q0 -209 -172 -299q-23 -6 -49 -6q-76 0 -209 67q-131 254 -131 394q0 43 9 82l-21 14l35 6l-35 62q29 0 35 14q-4 14 -20.5 34.5t-16.5 28.5zM164 1319v158h106v-158h-106zM193 709q25 -14 71 -15q18 0 56 2t57 2q23 0 41 -2q0 109 -27 170q-10 39 -33 39h-10 q-8 -2 -12 -2q-23 0 -41 17q-55 -16 -72.5 -83t-29.5 -128zM371 1323l6 154h100v-158z" />
<glyph unicode="&#xec;" horiz-adv-x="436" d="M14 1481l66 131l389 -258l-49 -54zM137 1087q63 25 160 0v-1075q-16 -12 -45 -16q-23 -2 -55 0q-43 2 -45 2q-10 150 -13 391v516q0 100 -2 182z" />
<glyph unicode="&#xed;" horiz-adv-x="430" d="M-84 1338l387 256l65 -131l-405 -181zM-2 524v563q61 25 158 0v-1075q-16 -12 -45 -16q-20 -2 -54 0q-43 2 -45 2q-14 184 -14 526z" />
<glyph unicode="&#xee;" horiz-adv-x="258" d="M-90 1317l154 231h47l137 -241l-88 -31l-78 119l-82 -119zM-2 524v563q61 25 158 0v-1075q-16 -12 -45 -16q-20 -2 -54 0q-43 2 -45 2q-14 184 -14 526z" />
<glyph unicode="&#xef;" horiz-adv-x="256" d="M-67 1325v158h106v-158h-106zM-2 524v563q61 25 158 0v-1075q-16 -12 -45 -16q-20 -2 -54 0q-43 2 -45 2q-14 184 -14 526zM140 1329l6 154h100v-158z" />
<glyph unicode="&#xf1;" horiz-adv-x="595" d="M-8 274q0 137 13 414t13 416h140q0 -59 14 -64q68 90 168 90q133 0 168 -145v-977h-148l-14 914q-27 27 -55 26q-20 0 -98 -47q-53 -147 -54 -405q0 -51 6 -246q4 -152 0 -242q-16 -14 -68 -14t-73 -14q-12 135 -12 294zM57 1366q80 147 119 147q20 0 83.5 -56t88.5 -56 q43 0 100 106l64 -30q-104 -188 -160 -183q-31 4 -89 52.5t-75 48.5q-35 0 -71 -60z" />
<glyph unicode="&#xf2;" horiz-adv-x="667" d="M6 530q0 272 117 498q66 84 186 84q96 0 152 -63q127 -147 127 -431q0 -138 -33 -335q-31 -182 -188 -271q-31 -12 -62 -12q-94 0 -209 115q-90 182 -90 415zM111 1475l65 131l387 -256l-47 -56zM170 317l53 -86q37 -57 88 -49q117 137 117 391q0 176 -55 332 q-18 -2 -43 19.5t-41 21.5q-12 0 -25 -6q-88 -102 -94 -297v-326z" />
<glyph unicode="&#xf3;" horiz-adv-x="667" d="M6 530q0 272 117 498q66 84 186 84q96 0 152 -63q127 -147 127 -431q0 -138 -33 -335q-31 -182 -188 -271q-31 -12 -62 -12q-94 0 -209 115q-90 182 -90 415zM111 1350l387 256l65 -131l-405 -181zM170 317l53 -86q37 -57 88 -49q117 137 117 391q0 176 -55 332 q-18 -2 -43 19.5t-41 21.5q-12 0 -25 -6q-88 -102 -94 -297v-326z" />
<glyph unicode="&#xf4;" horiz-adv-x="667" d="M6 530q0 272 117 498q66 84 186 84q96 0 152 -63q127 -147 127 -431q0 -138 -33 -335q-31 -182 -188 -271q-31 -12 -62 -12q-94 0 -209 115q-90 182 -90 415zM133 1323l154 231h47l137 -241l-88 -31l-78 119l-82 -119zM170 317l53 -86q37 -57 88 -49q117 137 117 391 q0 176 -55 332q-18 -2 -43 19.5t-41 21.5q-12 0 -25 -6q-88 -102 -94 -297v-326z" />
<glyph unicode="&#xf5;" horiz-adv-x="667" d="M6 530q0 272 117 498q66 84 186 84q96 0 152 -63q127 -147 127 -431q0 -138 -33 -335q-31 -182 -188 -271q-31 -12 -62 -12q-94 0 -209 115q-90 182 -90 415zM92 1366q80 147 119 147q20 0 83.5 -56t88.5 -56q43 0 100 106l64 -30q-104 -188 -160 -183q-31 4 -89 52.5 t-75 48.5q-35 0 -71 -60zM170 317l53 -86q37 -57 88 -49q117 137 117 391q0 176 -55 332q-18 -2 -43 19.5t-41 21.5q-12 0 -25 -6q-88 -102 -94 -297v-326z" />
<glyph unicode="&#xf6;" horiz-adv-x="665" d="M6 530q0 272 117 498q66 84 186 84q96 0 152 -63q127 -147 127 -431q0 -138 -33 -335q-31 -182 -188 -271q-31 -12 -62 -12q-94 0 -209 115q-90 182 -90 415zM164 1319v158h106v-158h-106zM170 317l53 -86q37 -57 88 -49q117 137 117 391q0 176 -55 332q-18 -2 -43 19.5 t-41 21.5q-12 0 -25 -6q-88 -102 -94 -297v-326zM371 1323l6 154h100v-158z" />
<glyph unicode="&#xf9;" horiz-adv-x="636" d="M0 221v864q16 12 41 17q16 2 47 0q43 -2 51 -2q0 -41 15 -453q10 -272 6 -438q18 -61 92 -62q45 0 76 27q76 104 75 275q0 102 -28 198q18 59 18 141q0 31 -3 91.5t-3 91.5q0 86 23 143q10 2 18 2q16 0 44 -10t44 -10q10 0 21 4l12 -1080q-20 -25 -57 -24q-8 0 -41 4 q-25 2 -41 0q-8 4 -14.5 26.5t-20.5 22.5q-4 0 -13 -2q-31 -74 -139 -74q-41 0 -84 13q-66 27 -98 102q-20 68 -41 133zM64 1481l65 131l387 -256l-47 -56z" />
<glyph unicode="&#xfa;" horiz-adv-x="638" d="M0 221v864q16 12 41 17q16 2 47 0q43 -2 51 -2q0 -41 15 -453q10 -272 6 -438q18 -61 92 -62q45 0 76 27q76 104 75 275q0 102 -28 198q18 59 18 141q0 31 -3 91.5t-3 91.5q0 86 23 143q10 2 18 2q16 0 44 -10t44 -10q10 0 21 4l12 -1080q-20 -25 -57 -24q-8 0 -41 4 q-25 2 -41 0q-8 4 -14.5 26.5t-20.5 22.5q-4 0 -13 -2q-31 -74 -139 -74q-41 0 -84 13q-66 27 -98 102q-20 68 -41 133zM111 1350l387 256l65 -131l-405 -181z" />
<glyph unicode="&#xfb;" horiz-adv-x="636" d="M0 221v864q16 12 41 17q16 2 47 0q43 -2 51 -2q0 -41 15 -453q10 -272 6 -438q18 -61 92 -62q45 0 76 27q76 104 75 275q0 102 -28 198q18 59 18 141q0 31 -3 91.5t-3 91.5q0 86 23 143q10 2 18 2q16 0 44 -10t44 -10q10 0 21 4l12 -1080q-20 -25 -57 -24q-8 0 -41 4 q-25 2 -41 0q-8 4 -14.5 26.5t-20.5 22.5q-4 0 -13 -2q-31 -74 -139 -74q-41 0 -84 13q-66 27 -98 102q-20 68 -41 133zM111 1329l154 231h47l137 -241l-88 -31l-78 119l-82 -119z" />
<glyph unicode="&#xfc;" horiz-adv-x="636" d="M0 221v864q16 12 41 17q16 2 47 0q43 -2 51 -2q0 -41 15 -453q10 -272 6 -438q18 -61 92 -62q45 0 76 27q76 104 75 275q0 102 -28 198q18 59 18 141q0 31 -3 91.5t-3 91.5q0 86 23 143q10 2 18 2q16 0 44 -10t44 -10q10 0 21 4l12 -1080q-20 -25 -57 -24q-8 0 -41 4 q-25 2 -41 0q-8 4 -14.5 26.5t-20.5 22.5q-4 0 -13 -2q-31 -74 -139 -74q-41 0 -84 13q-66 27 -98 102q-20 68 -41 133zM135 1319v158h106v-158h-106zM342 1323l6 154h100v-158z" />
<glyph unicode="&#x2c6;" horiz-adv-x="501" d="M86 1323l154 231h47l137 -241l-88 -31l-78 119l-82 -119z" />
<glyph unicode="&#x2dc;" horiz-adv-x="632" d="M92 1366q80 147 119 147q20 0 83.5 -56t88.5 -56q43 0 100 106l64 -30q-104 -188 -160 -183q-31 4 -89 52.5t-75 48.5q-35 0 -71 -60z" />
<glyph unicode="&#x2000;" horiz-adv-x="995" />
<glyph unicode="&#x2001;" horiz-adv-x="1991" />
<glyph unicode="&#x2002;" horiz-adv-x="995" />
<glyph unicode="&#x2003;" horiz-adv-x="1991" />
<glyph unicode="&#x2004;" horiz-adv-x="663" />
<glyph unicode="&#x2005;" horiz-adv-x="497" />
<glyph unicode="&#x2006;" horiz-adv-x="331" />
<glyph unicode="&#x2007;" horiz-adv-x="331" />
<glyph unicode="&#x2008;" horiz-adv-x="248" />
<glyph unicode="&#x2009;" horiz-adv-x="398" />
<glyph unicode="&#x200a;" horiz-adv-x="110" />
<glyph unicode="&#x2010;" horiz-adv-x="503" d="M70 563v154l348 4l-25 -158h-323z" />
<glyph unicode="&#x2011;" horiz-adv-x="503" d="M70 563v154l348 4l-25 -158h-323z" />
<glyph unicode="&#x2012;" horiz-adv-x="503" d="M70 563v154l348 4l-25 -158h-323z" />
<glyph unicode="&#x2013;" horiz-adv-x="1179" d="M70 563v154l1024 4l-74 -158h-950z" />
<glyph unicode="&#x2014;" horiz-adv-x="10567" d="M172 698q0 63 90 82l1290 -30q942 -23 1796 -23q668 0 1297 12q106 2 332 119q195 98 344 209q436 -317 747 -317q-2 -4 -18 -5h684q2990 2 2478 3q397 0 620 8q336 10 568 14q86 2 86 -57q0 -31 -26.5 -58.5t-59.5 -27.5h-4487q-119 -29 -295 -114t-297 -173 q-315 174 -346 190q-156 76 -289 97h-3144q-18 0 -418.5 -15.5t-613.5 -15.5q-176 0 -248 10q-39 4 -64.5 32t-25.5 60z" />
<glyph unicode="&#x2018;" horiz-adv-x="243" d="M14 1198v197l142 254l4 -465z" />
<glyph unicode="&#x2019;" horiz-adv-x="235" d="M12 1651l144 -15v-196l-140 -252z" />
<glyph unicode="&#x201c;" horiz-adv-x="440" d="M10 1229v194l142 254l4 -463zM211 1229v196l139 252l4 -463z" />
<glyph unicode="&#x201d;" horiz-adv-x="436" d="M12 1663l144 -14v-195l-140 -254zM213 1663l143 -14v-195l-139 -254z" />
<glyph unicode="&#x2022;" horiz-adv-x="3878" d="M137 1264q18 49 42 101t73 65q16 12 51 28q-2 -156 57 -227l29 -25l6 4q-14 88 -67 256l2 11q72 47 215 139q47 -29 190 -33q4 -20 -2 -76q-6 -47 2 -75q-4 -6 -16 -9h-17q-6 -2 -6 -14q4 -84 25 -254q4 -6 8 -6q-6 0 27 14q6 12 18 15q2 -25 2 -76q-84 -176 -330 -166 q-86 2 -163 49q-84 49 -119 127zM500 1137q63 -31 153 -11l6 7q-10 90 -30 268q4 16 -11 22q-14 6 -26 -2l16 -211q-16 -18 -51 -34q-45 -23 -57 -31v-8zM754 264q-2 6 4 16.5t16 6.5q8 35 6 94q-4 70 0 96q2 80 29 236q8 31 39 30q12 0 16 -10q23 -37 43 -74q23 -43 31 -81 q4 -25 4 -56q0 -20 -4 -64t-4 -65q0 -29 4 -53q53 8 94 8q129 0 197 -86q-2 -8 2 -20q37 -43 37 -84q0 -35 -33 -35q-10 0 -32.5 9t-35.5 9q-14 0 -21 -7t-5 -30.5t-6 -25.5q-31 -4 -62 -10q-35 -4 -59 10q-18 8 -39 8q-37 0 -74 -36t-61 -36q-12 0 -25 11q-41 33 -51 106 q-6 68 -10 133zM784 1389q-2 35 11 55q31 2 30 14l-4 60q-2 35 10 51q76 20 224 71l12 -10q-4 -82 10 -168q4 -6 19.5 -5t19.5 -5l6 -109q-6 -8 -25.5 -8t-19.5 -16q0 -39 4 -119q6 -54 45 -74l-75 -178l-19 -2q-109 59 -184 86q-10 8 -8 23q4 27 4 26q-6 43 -8 119 q0 84 -5 117q-10 12 -38 10q-4 31 -9 62zM1167 1642l7 11q47 -2 118 6q90 8 117 10q4 -45 0 -133q-2 -86 2 -129l4 -6q31 47 92 141q68 -41 209 -115q-27 -197 -14 -356q-29 -45 -57 -90q-37 -51 -86 -59q-104 -37 -240 -76q-6 8 -6 16q37 20 77 45t56 60q20 59 20 75 q0 18 -8 33q-39 -33 -115 -125q-20 8 -163 111q6 63 6 139q0 82 -8 221q-8 168 -11 221zM1231 676q0 63 41 90q6 4 14 4q39 0 57 -74q16 -86 35 -172q20 -100 62 -166q18 -31 39 -59q23 -37 22 -63q0 -20 -12 -39t-45 -21q6 0 -58 2q-6 0 -9 12.5t-5 14.5q-47 63 -51 69 q-25 39 -31 78q-4 8 -14 27q-33 63 -33 162q0 20 -6 66t-6 69zM1409 1319q0 -117 12 -145q2 0 21 -11q12 -6 18 0q-4 14 0 76q2 47 -12 72q-2 0 -21 10q-12 6 -18 -2zM1487 680q0 31 14 55q10 14 27 -2q33 -27 61 -90q31 -72 56 -96q23 39 86 108q6 16 24.5 38t32.5 69 t35 65q10 8 28 7q18 -2 22.5 -17t4.5 -31q0 -27 -12 -63q-16 -51 -19 -61q4 -45 -8 -125q-18 -80 -74 -234q-35 -72 -51 -70q-49 10 -92 80q-49 82 -80 101q10 18 10 35q0 23 -18 57q-20 43 -23 59q-25 106 -24 115zM1751 1391q0 10 8 18l84 147q31 -16 82 -53 q57 -43 82 -57q-12 -39 -14 -103l-4 -106q45 -31 47 -31q6 0 10 2q2 -20 2 125q0 61 -25 99l136 116l8 -4l114 -114q-16 -88 -20 -242q23 -16 23 -39q0 -14 -13 -29l-55 -119q-55 29 -164 91q-2 14 -12 41q-27 -20 -55 -62q-25 -33 -50 -67q-70 53 -176 106q12 33 15 76 q2 29 0 80q-2 57 -2 82q-2 4 -13 22q-8 12 -8 21zM1937 391q0 100 21 160q0 12 2 37q10 43 20.5 88t28.5 78q10 16 27 16q10 0 16 -18q8 -25 4 -72q-4 -49 0 -72q4 0 107 -22q66 -12 108 -13q23 0 45 5q2 -4 2 -11q-8 -8 -8 -10q4 -10 2 -12q-16 -20 -26 -19q-63 6 -80 4 q-16 -2 -25.5 -29.5t-19.5 -27.5q-94 2 -109 53q0 2 -4 2q-4 -2 -6 -4q-14 -57 4 -82q18 -8 57 -28q20 -10 60 -19q51 -8 61 -10q-6 -10 2 -12q4 2 8 8q-2 -10 4 -21q2 0 11 19q2 -2 -2 -14q0 -2 6 -1t12 -6.5t10 -7.5q16 0 47 10q-6 6 -2 11q4 -10 9 -6q10 6 18 25.5 t14 23.5q25 12 39 12q15 0 21 -14q4 -14 -29 -50q4 -16 -2 -34q-6 2 -14 -4q-2 -8 8 -11l12 6q-29 -16 -6 -43q-4 0 -10 -2q0 -4 8 -10t6 -10q-12 -27 -86 -33q-51 -6 -156 -12q-20 0 -62 -10.5t-62 -10.5q-18 0 -34 6.5t-22 41.5q-8 43 -20.5 59t-14.5 96zM2060 788 q0 31 43 31q29 0 47 -20q2 2 4 2q-2 10 5 10q0 2 6 -18q8 4 6 10q6 -10 10 -12q4 -6 10 2q-2 -14 2 -17q4 2 9 8q2 -6 8 -12q2 2 6 8q4 -8 10 -8q4 2 6 4q0 -4 4 -6q6 -2 23 4l-4 8q0 -8 10 -10q4 2 6 8q0 -6 4 -10q8 0 21 12q-2 -6 8 -8q10 4 8 17q-6 4 -2 10q0 -4 4 -10 q8 -2 14.5 5t12.5 15q0 -4 4 -6q4 0 6 6l2 6q31 8 53.5 -8t22.5 -29q0 -8 -8 -14q0 -2 -54 -66q-33 -39 -96 -38q-47 0 -112 22q-16 4 -35 9t-23 22q-2 2 6 10q6 6 -2 9t-20 7q-25 23 -25 47zM2206 803q2 0 2 -4q-4 2 -2 4zM2248 792zM2261 793l2 2l2 -4q-4 0 -4 2z M2286 793l2 -5q-2 2 -2 5zM2359 1069q12 115 15 297q2 147 4 295q106 -2 235 10l6 -4l-30 -471l30 -33l-75 -205q-61 37 -185 111zM2421 201q0 43 43 43q88 0 110 -25q4 6 41 6q6 0 8 8q6 -10 13 -8q20 4 28 4q-4 -2 -6 -4q2 -4 11 -8q6 0 10 14q37 -14 45 -4q6 6 -10 6 l14 9q2 -8 -4 -16.5t-6 -10.5q0 -6 10 -8t33 -4q4 8 22 14q-4 6 -4 12q0 8 6 19.5t6 15.5q0 6 -14 10q-20 4 -39 -20q-6 6 -12 6t-17.5 -6t-17.5 -6q-8 0 -14 6q14 0 35 12q2 4 -6.5 7t-8.5 8q-10 -2 -10 -9q-16 18 -12 23q29 10 67 45q16 33 -18 66q-14 23 -53 55 q-14 0 -31 4q-4 6 -64 76q-39 45 -45 82q-12 98 142 135q16 4 92 2q59 -2 82 18q43 37 82 33q14 -2 23 -19.5t5 -25.5q-20 -31 -82 -47q-106 -25 -106 -27q-8 -2 -29.5 -22.5t-21.5 -26.5q0 -4 4 -11t4 -11q0 -6 -4 -11q-4 -2 14 -8q-2 0 -6 -4q0 -6 10 -6q-8 -2 -4 -8t2 -9 l-20 5q-23 -2 0 -13q4 2 10 0q2 0 8 -2q-2 -2 -2 -4q-2 4 -6 6q-8 2 -12 -2q6 -47 59 -102q18 -20 27 -21q-2 -12 4 -16q72 -39 86 -70q18 -41 -23 -82q-27 -29 -92 -129q-10 -18 -43 -20q-16 -2 -98 -21q-59 -12 -99 -6q-41 6 -78.5 38t-37.5 65zM2501 254q0 6 9 16.5 t10 15.5t7 1q2 -4 4 -11q6 2 68 -6q12 2 35 4q-14 -6 -35 -4q-68 -4 -94 -26q-4 6 -4 10zM2642 1065q18 113 24 287q6 147 11 295l8 10q45 -8 119 -6q90 2 116 0q0 -43 -10 -130t-10 -130l4 -7q35 43 105 134q63 -48 198 -132q-43 -195 -45 -354q-33 -43 -65 -86 q-41 -49 -91 -51q-106 -29 -243 -55q-6 6 -6 16q39 16 79.5 37.5t63.5 56.5q27 59 27 78q0 14 -7 27q-43 -27 -124 -115q-20 10 -154 125zM2732 631q2 8 6 -2l2 -2q-8 2 -8 4zM2740 621q4 -3 2 -5q-2 0 -2 5zM2740 672q2 -6 4 -6q0 4 -2 4l2 -2zM2742 645q2 0 4 -2 q-6 0 -4 2l4 8q2 -4 0 -4q0 -2 -4 -4zM2824 6q8 10 15 10q2 0 0 -10q0 -4 -15 0zM2859 57q4 10 8 2q0 -4 -6 -8q-2 2 -2 6zM2875 98l2 8q14 -6 29 3l-6 12q27 12 25 33q18 -8 24 4q-2 4 -8 6l4 8q4 4 12.5 -3t12.5 -7t6 4q6 4 -1 18.5t-3 14.5q8 0 8 -9v-14q2 -10 6 -12 q8 -4 14 0q-2 12 3.5 15t11.5 3q20 0 16 -37q8 2 8 9q4 -2 12.5 -5.5t4.5 -9.5q-8 -6 -9 -8q4 -10 9 -10q2 0 11 5t15 1q8 -6 2 -10q-27 -16 -26 -21l4 -8q16 14 22 2q4 -8 -4 -10q-6 -2 -16 0q-4 0 -6 -6q4 -14 20 -15q25 -2 31 -6t0 -8q-4 -6 -10 -6t-19.5 7t-21.5 7 q-10 -2 -11 -6q-2 -14 19 -16q0 -2 2 -11q-2 -4 -6 -8q-2 0 -15 8q-6 4 -14 0q2 -2 0 -20l-10 2q4 6 -2 10q-16 10 -25 -2q2 -8 0 -20q-8 -10 -14 0q-4 4 -2 12v14q-2 6 -10 4q-6 0 -10.5 -12t-8.5 -12l-8 4q-6 6 0 12q8 8 10 8q2 14 -24 19q-8 2 -17.5 -14.5t-21.5 -14.5 q-6 4 -8 4q16 10 36 31q4 12 -18 29q6 6 14 22q-2 8 -8 8q-2 0 -16 -6q-8 -4 -15 0zM2890 1157q6 0 16 -8t14 -8q7 0 9 2q-2 20 4 57t6 49q0 25 -10 41q-2 0 -19 13q-12 6 -18 0q-10 -117 -2 -146zM3006 283q47 109 68 182q4 2 10 6q16 47 41 250q29 14 37 61 q8 57 19.5 72.5t29.5 1.5q10 -6 17 -55q10 -87 2 -105q-8 4 -11 -2q-8 -20 -8 -147q0 -45 -12 -62q2 12 -2 17q-16 -23 -27 -94q-2 -23 -12 -66q-6 -51 -39 -145q-10 -6 -20 -29q-8 16 -31 41q-10 6 -31 14q4 8 -20 29q-18 14 -11 31zM3222 1065q20 45 26 115q4 61 8 120 q-2 6 -9 21.5t-7 21.5q0 12 10 21l96 137q31 -18 78 -59q53 -49 76 -66q-16 -37 -25 -98q-6 -53 -14 -107q14 -12 28.5 -26.5t26.5 -7.5q0 23 8.5 74t8.5 77q0 43 -19 72l148 104l8 -4l100 -125q-25 -86 -41 -239q18 -16 19 -37q0 -16 -14 -31l-68 -115q-51 37 -154 107 q0 14 -8 43q-29 -18 -61 -57q-29 -31 -56 -62q-66 57 -165 121z" />
<glyph unicode="&#x202f;" horiz-adv-x="398" />
<glyph unicode="&#x205f;" horiz-adv-x="497" />
<glyph unicode="&#x25fc;" horiz-adv-x="1116" d="M0 0v1116h1116v-1116h-1116z" />
</font>
</defs>
</svg>
